<?xml version="1.0" encoding="utf-8" standalone="no"?>
<!DOCTYPE svg PUBLIC "-//W3C//DTD SVG 1.1//EN"
  "http://www.w3.org/Graphics/SVG/1.1/DTD/svg11.dtd">
<!-- Created with matplotlib (https://matplotlib.org/) -->
<svg height="314.63775pt" version="1.1" viewBox="0 0 622.186875 314.63775" width="622.186875pt" xmlns="http://www.w3.org/2000/svg" xmlns:xlink="http://www.w3.org/1999/xlink">
 <defs>
  <style type="text/css">
*{stroke-linecap:butt;stroke-linejoin:round;}
  </style>
 </defs>
 <g id="figure_1">
  <g id="patch_1">
   <path d="M 0 314.63775 
L 622.186875 314.63775 
L 622.186875 0 
L 0 0 
z
" style="fill:none;"/>
  </g>
  <g id="axes_1">
   <g id="patch_2">
    <path d="M 45.980625 268.48275 
L 603.980625 268.48275 
L 603.980625 23.68275 
L 45.980625 23.68275 
z
" style="fill:none;"/>
   </g>
   <g id="matplotlib.axis_1">
    <g id="xtick_1">
     <g id="line2d_1">
      <path clip-path="url(#p1ce1617f41)" d="M 45.980625 268.48275 
L 45.980625 23.68275 
" style="fill:none;stroke:#cccccc;stroke-linecap:round;stroke-width:0.8;"/>
     </g>
     <g id="line2d_2">
      <defs>
       <path d="M 0 0 
L 0 3 
" id="m7ff40300b9" style="stroke:#262626;stroke-width:0.8;"/>
      </defs>
      <g>
       <use style="fill:#262626;stroke:#262626;stroke-width:0.8;" x="45.980625" xlink:href="#m7ff40300b9" y="268.48275"/>
      </g>
     </g>
     <g id="text_1">
      <!-- Jan -->
      <defs>
       <path d="M 33.109375 71.578125 
L 47.515625 71.578125 
L 47.515625 26.265625 
Q 47.515625 17.390625 45.953125 12.59375 
Q 43.84375 6.34375 38.328125 2.5625 
Q 32.8125 -1.21875 23.78125 -1.21875 
Q 13.1875 -1.21875 7.46875 4.703125 
Q 1.765625 10.640625 1.703125 22.125 
L 15.328125 23.6875 
Q 15.578125 17.53125 17.140625 14.984375 
Q 19.484375 11.140625 24.265625 11.140625 
Q 29.109375 11.140625 31.109375 13.890625 
Q 33.109375 16.65625 33.109375 25.34375 
z
" id="Arial-BoldMT-74"/>
       <path d="M 17.4375 36.03125 
L 4.984375 38.28125 
Q 7.078125 45.796875 12.203125 49.40625 
Q 17.328125 53.03125 27.4375 53.03125 
Q 36.625 53.03125 41.109375 50.859375 
Q 45.609375 48.6875 47.4375 45.34375 
Q 49.265625 42 49.265625 33.0625 
L 49.125 17.046875 
Q 49.125 10.203125 49.78125 6.953125 
Q 50.4375 3.71875 52.25 0 
L 38.671875 0 
Q 38.140625 1.375 37.359375 4.046875 
Q 37.015625 5.28125 36.859375 5.671875 
Q 33.34375 2.25 29.34375 0.53125 
Q 25.34375 -1.171875 20.796875 -1.171875 
Q 12.796875 -1.171875 8.171875 3.171875 
Q 3.5625 7.515625 3.5625 14.15625 
Q 3.5625 18.5625 5.65625 22 
Q 7.765625 25.4375 11.546875 27.265625 
Q 15.328125 29.109375 22.46875 30.46875 
Q 32.078125 32.28125 35.796875 33.84375 
L 35.796875 35.203125 
Q 35.796875 39.15625 33.84375 40.84375 
Q 31.890625 42.53125 26.46875 42.53125 
Q 22.796875 42.53125 20.75 41.09375 
Q 18.703125 39.65625 17.4375 36.03125 
z
M 35.796875 24.90625 
Q 33.15625 24.03125 27.4375 22.796875 
Q 21.734375 21.578125 19.96875 20.40625 
Q 17.28125 18.5 17.28125 15.578125 
Q 17.28125 12.703125 19.421875 10.59375 
Q 21.578125 8.5 24.90625 8.5 
Q 28.609375 8.5 31.984375 10.9375 
Q 34.46875 12.796875 35.25 15.484375 
Q 35.796875 17.234375 35.796875 22.171875 
z
" id="Arial-BoldMT-97"/>
       <path d="M 54.34375 0 
L 40.625 0 
L 40.625 26.46875 
Q 40.625 34.859375 39.75 37.328125 
Q 38.875 39.796875 36.890625 41.15625 
Q 34.90625 42.53125 32.125 42.53125 
Q 28.5625 42.53125 25.734375 40.578125 
Q 22.90625 38.625 21.84375 35.390625 
Q 20.796875 32.171875 20.796875 23.484375 
L 20.796875 0 
L 7.078125 0 
L 7.078125 51.859375 
L 19.828125 51.859375 
L 19.828125 44.234375 
Q 26.609375 53.03125 36.921875 53.03125 
Q 41.453125 53.03125 45.203125 51.390625 
Q 48.96875 49.75 50.890625 47.203125 
Q 52.828125 44.671875 53.578125 41.453125 
Q 54.34375 38.234375 54.34375 32.234375 
z
" id="Arial-BoldMT-110"/>
      </defs>
      <g style="fill:#262626;" transform="translate(35.642813 280.572125)scale(0.12 -0.12)">
       <use xlink:href="#Arial-BoldMT-74"/>
       <use x="55.615234" xlink:href="#Arial-BoldMT-97"/>
       <use x="111.230469" xlink:href="#Arial-BoldMT-110"/>
      </g>
     </g>
    </g>
    <g id="xtick_2">
     <g id="line2d_3">
      <path clip-path="url(#p1ce1617f41)" d="M 97.771044 268.48275 
L 97.771044 23.68275 
" style="fill:none;stroke:#cccccc;stroke-linecap:round;stroke-width:0.8;"/>
     </g>
     <g id="line2d_4">
      <g>
       <use style="fill:#262626;stroke:#262626;stroke-width:0.8;" x="97.771044" xlink:href="#m7ff40300b9" y="268.48275"/>
      </g>
     </g>
     <g id="text_2">
      <!-- Feb -->
      <defs>
       <path d="M 7.375 0 
L 7.375 71.578125 
L 56.453125 71.578125 
L 56.453125 59.46875 
L 21.828125 59.46875 
L 21.828125 42.53125 
L 51.703125 42.53125 
L 51.703125 30.421875 
L 21.828125 30.421875 
L 21.828125 0 
z
" id="Arial-BoldMT-70"/>
       <path d="M 37.203125 16.5 
L 50.875 14.203125 
Q 48.25 6.6875 42.546875 2.75 
Q 36.859375 -1.171875 28.328125 -1.171875 
Q 14.796875 -1.171875 8.296875 7.671875 
Q 3.171875 14.75 3.171875 25.53125 
Q 3.171875 38.421875 9.90625 45.71875 
Q 16.65625 53.03125 26.953125 53.03125 
Q 38.53125 53.03125 45.21875 45.390625 
Q 51.90625 37.75 51.609375 21.96875 
L 17.234375 21.96875 
Q 17.390625 15.875 20.5625 12.46875 
Q 23.734375 9.078125 28.46875 9.078125 
Q 31.6875 9.078125 33.875 10.828125 
Q 36.078125 12.59375 37.203125 16.5 
z
M 37.984375 30.375 
Q 37.84375 36.328125 34.90625 39.421875 
Q 31.984375 42.53125 27.78125 42.53125 
Q 23.296875 42.53125 20.359375 39.265625 
Q 17.4375 35.984375 17.484375 30.375 
z
" id="Arial-BoldMT-101"/>
       <path d="M 6.59375 0 
L 6.59375 71.578125 
L 20.3125 71.578125 
L 20.3125 45.796875 
Q 26.65625 53.03125 35.359375 53.03125 
Q 44.828125 53.03125 51.03125 46.171875 
Q 57.234375 39.3125 57.234375 26.46875 
Q 57.234375 13.1875 50.90625 6 
Q 44.578125 -1.171875 35.546875 -1.171875 
Q 31.109375 -1.171875 26.78125 1.046875 
Q 22.46875 3.265625 19.34375 7.625 
L 19.34375 0 
z
M 20.21875 27.046875 
Q 20.21875 19 22.75 15.140625 
Q 26.3125 9.671875 32.234375 9.671875 
Q 36.765625 9.671875 39.96875 13.546875 
Q 43.171875 17.4375 43.171875 25.78125 
Q 43.171875 34.671875 39.9375 38.59375 
Q 36.71875 42.53125 31.6875 42.53125 
Q 26.765625 42.53125 23.484375 38.6875 
Q 20.21875 34.859375 20.21875 27.046875 
z
" id="Arial-BoldMT-98"/>
      </defs>
      <g style="fill:#262626;" transform="translate(87.105107 280.572125)scale(0.12 -0.12)">
       <use xlink:href="#Arial-BoldMT-70"/>
       <use x="61.083984" xlink:href="#Arial-BoldMT-101"/>
       <use x="116.699219" xlink:href="#Arial-BoldMT-98"/>
      </g>
     </g>
    </g>
    <g id="xtick_3">
     <g id="line2d_5">
      <path clip-path="url(#p1ce1617f41)" d="M 144.549487 268.48275 
L 144.549487 23.68275 
" style="fill:none;stroke:#cccccc;stroke-linecap:round;stroke-width:0.8;"/>
     </g>
     <g id="line2d_6">
      <g>
       <use style="fill:#262626;stroke:#262626;stroke-width:0.8;" x="144.549487" xlink:href="#m7ff40300b9" y="268.48275"/>
      </g>
     </g>
     <g id="text_3">
      <!-- Mar -->
      <defs>
       <path d="M 7.078125 0 
L 7.078125 71.578125 
L 28.71875 71.578125 
L 41.703125 22.75 
L 54.546875 71.578125 
L 76.21875 71.578125 
L 76.21875 0 
L 62.796875 0 
L 62.796875 56.34375 
L 48.578125 0 
L 34.671875 0 
L 20.515625 56.34375 
L 20.515625 0 
z
" id="Arial-BoldMT-77"/>
       <path d="M 20.3125 0 
L 6.59375 0 
L 6.59375 51.859375 
L 19.34375 51.859375 
L 19.34375 44.484375 
Q 22.609375 49.703125 25.21875 51.359375 
Q 27.828125 53.03125 31.15625 53.03125 
Q 35.84375 53.03125 40.1875 50.4375 
L 35.9375 38.484375 
Q 32.46875 40.71875 29.5 40.71875 
Q 26.609375 40.71875 24.609375 39.125 
Q 22.609375 37.546875 21.453125 33.390625 
Q 20.3125 29.25 20.3125 16.015625 
z
" id="Arial-BoldMT-114"/>
      </defs>
      <g style="fill:#262626;" transform="translate(133.8798 280.572125)scale(0.12 -0.12)">
       <use xlink:href="#Arial-BoldMT-77"/>
       <use x="83.300781" xlink:href="#Arial-BoldMT-97"/>
       <use x="138.916016" xlink:href="#Arial-BoldMT-114"/>
      </g>
     </g>
    </g>
    <g id="xtick_4">
     <g id="line2d_7">
      <path clip-path="url(#p1ce1617f41)" d="M 196.270296 268.48275 
L 196.270296 23.68275 
" style="fill:none;stroke:#cccccc;stroke-linecap:round;stroke-width:0.8;"/>
     </g>
     <g id="line2d_8">
      <g>
       <use style="fill:#262626;stroke:#262626;stroke-width:0.8;" x="196.270296" xlink:href="#m7ff40300b9" y="268.48275"/>
      </g>
     </g>
     <g id="text_4">
      <!-- Apr -->
      <defs>
       <path d="M 71.828125 0 
L 56.109375 0 
L 49.859375 16.265625 
L 21.234375 16.265625 
L 15.328125 0 
L 0 0 
L 27.875 71.578125 
L 43.171875 71.578125 
z
M 45.21875 28.328125 
L 35.359375 54.890625 
L 25.6875 28.328125 
z
" id="Arial-BoldMT-65"/>
       <path d="M 6.78125 51.859375 
L 19.578125 51.859375 
L 19.578125 44.234375 
Q 22.078125 48.140625 26.3125 50.578125 
Q 30.5625 53.03125 35.75 53.03125 
Q 44.78125 53.03125 51.078125 45.953125 
Q 57.375 38.875 57.375 26.21875 
Q 57.375 13.234375 51.015625 6.03125 
Q 44.671875 -1.171875 35.640625 -1.171875 
Q 31.34375 -1.171875 27.84375 0.53125 
Q 24.359375 2.25 20.515625 6.390625 
L 20.515625 -19.734375 
L 6.78125 -19.734375 
z
M 20.359375 26.8125 
Q 20.359375 18.0625 23.828125 13.890625 
Q 27.296875 9.71875 32.28125 9.71875 
Q 37.0625 9.71875 40.234375 13.546875 
Q 43.40625 17.390625 43.40625 26.125 
Q 43.40625 34.28125 40.125 38.234375 
Q 36.859375 42.1875 32.03125 42.1875 
Q 27 42.1875 23.671875 38.296875 
Q 20.359375 34.421875 20.359375 26.8125 
z
" id="Arial-BoldMT-112"/>
      </defs>
      <g style="fill:#262626;" transform="translate(185.937171 280.572125)scale(0.12 -0.12)">
       <use xlink:href="#Arial-BoldMT-65"/>
       <use x="72.216797" xlink:href="#Arial-BoldMT-112"/>
       <use x="133.300781" xlink:href="#Arial-BoldMT-114"/>
      </g>
     </g>
    </g>
    <g id="xtick_5">
     <g id="line2d_9">
      <path clip-path="url(#p1ce1617f41)" d="M 246.390056 268.48275 
L 246.390056 23.68275 
" style="fill:none;stroke:#cccccc;stroke-linecap:round;stroke-width:0.8;"/>
     </g>
     <g id="line2d_10">
      <g>
       <use style="fill:#262626;stroke:#262626;stroke-width:0.8;" x="246.390056" xlink:href="#m7ff40300b9" y="268.48275"/>
      </g>
     </g>
     <g id="text_5">
      <!-- May -->
      <defs>
       <path d="M 0.6875 51.859375 
L 15.28125 51.859375 
L 27.6875 15.046875 
L 39.796875 51.859375 
L 54 51.859375 
L 35.6875 1.953125 
L 32.421875 -7.078125 
Q 30.609375 -11.625 28.96875 -14.015625 
Q 27.34375 -16.40625 25.21875 -17.890625 
Q 23.09375 -19.390625 19.984375 -20.21875 
Q 16.890625 -21.046875 12.984375 -21.046875 
Q 9.03125 -21.046875 5.21875 -20.21875 
L 4 -9.46875 
Q 7.234375 -10.109375 9.8125 -10.109375 
Q 14.59375 -10.109375 16.890625 -7.296875 
Q 19.1875 -4.5 20.40625 -0.140625 
z
" id="Arial-BoldMT-121"/>
      </defs>
      <g style="fill:#262626;" transform="translate(234.719119 280.572125)scale(0.12 -0.12)">
       <use xlink:href="#Arial-BoldMT-77"/>
       <use x="83.300781" xlink:href="#Arial-BoldMT-97"/>
       <use x="138.916016" xlink:href="#Arial-BoldMT-121"/>
      </g>
     </g>
    </g>
    <g id="xtick_6">
     <g id="line2d_11">
      <path clip-path="url(#p1ce1617f41)" d="M 298.180475 268.48275 
L 298.180475 23.68275 
" style="fill:none;stroke:#cccccc;stroke-linecap:round;stroke-width:0.8;"/>
     </g>
     <g id="line2d_12">
      <g>
       <use style="fill:#262626;stroke:#262626;stroke-width:0.8;" x="298.180475" xlink:href="#m7ff40300b9" y="268.48275"/>
      </g>
     </g>
     <g id="text_6">
      <!-- Jun -->
      <defs>
       <path d="M 41.3125 0 
L 41.3125 7.765625 
Q 38.484375 3.609375 33.859375 1.21875 
Q 29.25 -1.171875 24.125 -1.171875 
Q 18.890625 -1.171875 14.734375 1.125 
Q 10.59375 3.421875 8.734375 7.5625 
Q 6.890625 11.71875 6.890625 19.046875 
L 6.890625 51.859375 
L 20.609375 51.859375 
L 20.609375 28.03125 
Q 20.609375 17.09375 21.359375 14.625 
Q 22.125 12.15625 24.125 10.71875 
Q 26.125 9.28125 29.203125 9.28125 
Q 32.71875 9.28125 35.5 11.203125 
Q 38.28125 13.140625 39.296875 15.984375 
Q 40.328125 18.84375 40.328125 29.984375 
L 40.328125 51.859375 
L 54.046875 51.859375 
L 54.046875 0 
z
" id="Arial-BoldMT-117"/>
      </defs>
      <g style="fill:#262626;" transform="translate(287.514538 280.572125)scale(0.12 -0.12)">
       <use xlink:href="#Arial-BoldMT-74"/>
       <use x="55.615234" xlink:href="#Arial-BoldMT-117"/>
       <use x="116.699219" xlink:href="#Arial-BoldMT-110"/>
      </g>
     </g>
    </g>
    <g id="xtick_7">
     <g id="line2d_13">
      <path clip-path="url(#p1ce1617f41)" d="M 348.300236 268.48275 
L 348.300236 23.68275 
" style="fill:none;stroke:#cccccc;stroke-linecap:round;stroke-width:0.8;"/>
     </g>
     <g id="line2d_14">
      <g>
       <use style="fill:#262626;stroke:#262626;stroke-width:0.8;" x="348.300236" xlink:href="#m7ff40300b9" y="268.48275"/>
      </g>
     </g>
     <g id="text_7">
      <!-- Jul -->
      <defs>
       <path d="M 7.171875 0 
L 7.171875 71.578125 
L 20.90625 71.578125 
L 20.90625 0 
z
" id="Arial-BoldMT-108"/>
      </defs>
      <g style="fill:#262626;" transform="translate(339.632111 280.572125)scale(0.12 -0.12)">
       <use xlink:href="#Arial-BoldMT-74"/>
       <use x="55.615234" xlink:href="#Arial-BoldMT-117"/>
       <use x="116.699219" xlink:href="#Arial-BoldMT-108"/>
      </g>
     </g>
    </g>
    <g id="xtick_8">
     <g id="line2d_15">
      <path clip-path="url(#p1ce1617f41)" d="M 400.090655 268.48275 
L 400.090655 23.68275 
" style="fill:none;stroke:#cccccc;stroke-linecap:round;stroke-width:0.8;"/>
     </g>
     <g id="line2d_16">
      <g>
       <use style="fill:#262626;stroke:#262626;stroke-width:0.8;" x="400.090655" xlink:href="#m7ff40300b9" y="268.48275"/>
      </g>
     </g>
     <g id="text_8">
      <!-- Aug -->
      <defs>
       <path d="M 5.90625 -3.421875 
L 21.578125 -5.328125 
Q 21.96875 -8.0625 23.390625 -9.078125 
Q 25.34375 -10.546875 29.546875 -10.546875 
Q 34.90625 -10.546875 37.59375 -8.9375 
Q 39.40625 -7.859375 40.328125 -5.46875 
Q 40.96875 -3.765625 40.96875 0.828125 
L 40.96875 8.40625 
Q 34.8125 0 25.4375 0 
Q 14.984375 0 8.890625 8.84375 
Q 4.109375 15.828125 4.109375 26.21875 
Q 4.109375 39.265625 10.375 46.140625 
Q 16.65625 53.03125 25.984375 53.03125 
Q 35.59375 53.03125 41.84375 44.578125 
L 41.84375 51.859375 
L 54.6875 51.859375 
L 54.6875 5.328125 
Q 54.6875 -3.859375 53.171875 -8.390625 
Q 51.65625 -12.9375 48.921875 -15.515625 
Q 46.1875 -18.109375 41.625 -19.578125 
Q 37.0625 -21.046875 30.078125 -21.046875 
Q 16.890625 -21.046875 11.375 -16.53125 
Q 5.859375 -12.015625 5.859375 -5.078125 
Q 5.859375 -4.390625 5.90625 -3.421875 
z
M 18.171875 27 
Q 18.171875 18.75 21.359375 14.90625 
Q 24.5625 11.078125 29.25 11.078125 
Q 34.28125 11.078125 37.75 15.015625 
Q 41.21875 18.953125 41.21875 26.65625 
Q 41.21875 34.71875 37.890625 38.625 
Q 34.578125 42.53125 29.5 42.53125 
Q 24.5625 42.53125 21.359375 38.6875 
Q 18.171875 34.859375 18.171875 27 
z
" id="Arial-BoldMT-103"/>
      </defs>
      <g style="fill:#262626;" transform="translate(388.428155 280.572125)scale(0.12 -0.12)">
       <use xlink:href="#Arial-BoldMT-65"/>
       <use x="72.216797" xlink:href="#Arial-BoldMT-117"/>
       <use x="133.300781" xlink:href="#Arial-BoldMT-103"/>
      </g>
     </g>
    </g>
    <g id="xtick_9">
     <g id="line2d_17">
      <path clip-path="url(#p1ce1617f41)" d="M 451.881074 268.48275 
L 451.881074 23.68275 
" style="fill:none;stroke:#cccccc;stroke-linecap:round;stroke-width:0.8;"/>
     </g>
     <g id="line2d_18">
      <g>
       <use style="fill:#262626;stroke:#262626;stroke-width:0.8;" x="451.881074" xlink:href="#m7ff40300b9" y="268.48275"/>
      </g>
     </g>
     <g id="text_9">
      <!-- Sep -->
      <defs>
       <path d="M 3.609375 23.296875 
L 17.671875 24.65625 
Q 18.953125 17.578125 22.828125 14.25 
Q 26.703125 10.9375 33.296875 10.9375 
Q 40.28125 10.9375 43.8125 13.890625 
Q 47.359375 16.84375 47.359375 20.796875 
Q 47.359375 23.34375 45.875 25.125 
Q 44.390625 26.90625 40.671875 28.21875 
Q 38.140625 29.109375 29.109375 31.34375 
Q 17.484375 34.234375 12.796875 38.421875 
Q 6.203125 44.34375 6.203125 52.828125 
Q 6.203125 58.296875 9.296875 63.0625 
Q 12.40625 67.828125 18.234375 70.3125 
Q 24.078125 72.796875 32.328125 72.796875 
Q 45.796875 72.796875 52.609375 66.890625 
Q 59.421875 60.984375 59.765625 51.125 
L 45.3125 50.484375 
Q 44.390625 56 41.328125 58.421875 
Q 38.28125 60.84375 32.171875 60.84375 
Q 25.875 60.84375 22.3125 58.25 
Q 20.015625 56.59375 20.015625 53.8125 
Q 20.015625 51.265625 22.171875 49.46875 
Q 24.90625 47.171875 35.453125 44.671875 
Q 46 42.1875 51.046875 39.515625 
Q 56.109375 36.859375 58.953125 32.25 
Q 61.8125 27.640625 61.8125 20.84375 
Q 61.8125 14.703125 58.390625 9.328125 
Q 54.984375 3.953125 48.734375 1.34375 
Q 42.484375 -1.265625 33.15625 -1.265625 
Q 19.578125 -1.265625 12.296875 5 
Q 5.03125 11.28125 3.609375 23.296875 
z
" id="Arial-BoldMT-83"/>
      </defs>
      <g style="fill:#262626;" transform="translate(440.877637 280.718375)scale(0.12 -0.12)">
       <use xlink:href="#Arial-BoldMT-83"/>
       <use x="66.699219" xlink:href="#Arial-BoldMT-101"/>
       <use x="122.314453" xlink:href="#Arial-BoldMT-112"/>
      </g>
     </g>
    </g>
    <g id="xtick_10">
     <g id="line2d_19">
      <path clip-path="url(#p1ce1617f41)" d="M 502.000835 268.48275 
L 502.000835 23.68275 
" style="fill:none;stroke:#cccccc;stroke-linecap:round;stroke-width:0.8;"/>
     </g>
     <g id="line2d_20">
      <g>
       <use style="fill:#262626;stroke:#262626;stroke-width:0.8;" x="502.000835" xlink:href="#m7ff40300b9" y="268.48275"/>
      </g>
     </g>
     <g id="text_10">
      <!-- Oct -->
      <defs>
       <path d="M 4.34375 35.359375 
Q 4.34375 46.296875 7.625 53.71875 
Q 10.0625 59.1875 14.28125 63.53125 
Q 18.5 67.875 23.53125 69.96875 
Q 30.21875 72.796875 38.96875 72.796875 
Q 54.78125 72.796875 64.28125 62.984375 
Q 73.78125 53.171875 73.78125 35.6875 
Q 73.78125 18.359375 64.359375 8.5625 
Q 54.9375 -1.21875 39.15625 -1.21875 
Q 23.1875 -1.21875 13.765625 8.515625 
Q 4.34375 18.265625 4.34375 35.359375 
z
M 19.234375 35.84375 
Q 19.234375 23.6875 24.84375 17.40625 
Q 30.46875 11.140625 39.109375 11.140625 
Q 47.75 11.140625 53.296875 17.359375 
Q 58.84375 23.578125 58.84375 36.03125 
Q 58.84375 48.34375 53.4375 54.390625 
Q 48.046875 60.453125 39.109375 60.453125 
Q 30.171875 60.453125 24.703125 54.3125 
Q 19.234375 48.1875 19.234375 35.84375 
z
" id="Arial-BoldMT-79"/>
       <path d="M 52.390625 36.53125 
L 38.875 34.078125 
Q 38.1875 38.140625 35.765625 40.1875 
Q 33.34375 42.234375 29.5 42.234375 
Q 24.359375 42.234375 21.3125 38.6875 
Q 18.265625 35.15625 18.265625 26.859375 
Q 18.265625 17.625 21.359375 13.8125 
Q 24.46875 10.015625 29.6875 10.015625 
Q 33.59375 10.015625 36.078125 12.234375 
Q 38.578125 14.453125 39.59375 19.875 
L 53.078125 17.578125 
Q 50.984375 8.296875 45.015625 3.5625 
Q 39.0625 -1.171875 29.046875 -1.171875 
Q 17.671875 -1.171875 10.90625 6 
Q 4.15625 13.1875 4.15625 25.875 
Q 4.15625 38.71875 10.9375 45.875 
Q 17.71875 53.03125 29.296875 53.03125 
Q 38.765625 53.03125 44.359375 48.953125 
Q 49.953125 44.875 52.390625 36.53125 
z
" id="Arial-BoldMT-99"/>
       <path d="M 30.953125 51.859375 
L 30.953125 40.921875 
L 21.578125 40.921875 
L 21.578125 20.015625 
Q 21.578125 13.671875 21.84375 12.625 
Q 22.125 11.578125 23.078125 10.890625 
Q 24.03125 10.203125 25.390625 10.203125 
Q 27.296875 10.203125 30.90625 11.53125 
L 32.078125 0.875 
Q 27.296875 -1.171875 21.234375 -1.171875 
Q 17.53125 -1.171875 14.546875 0.0625 
Q 11.578125 1.3125 10.1875 3.296875 
Q 8.796875 5.28125 8.25 8.640625 
Q 7.8125 11.03125 7.8125 18.3125 
L 7.8125 40.921875 
L 1.515625 40.921875 
L 1.515625 51.859375 
L 7.8125 51.859375 
L 7.8125 62.15625 
L 21.578125 70.171875 
L 21.578125 51.859375 
z
" id="Arial-BoldMT-116"/>
      </defs>
      <g style="fill:#262626;" transform="translate(491.999585 280.572125)scale(0.12 -0.12)">
       <use xlink:href="#Arial-BoldMT-79"/>
       <use x="77.783203" xlink:href="#Arial-BoldMT-99"/>
       <use x="133.398438" xlink:href="#Arial-BoldMT-116"/>
      </g>
     </g>
    </g>
    <g id="xtick_11">
     <g id="line2d_21">
      <path clip-path="url(#p1ce1617f41)" d="M 553.791254 268.48275 
L 553.791254 23.68275 
" style="fill:none;stroke:#cccccc;stroke-linecap:round;stroke-width:0.8;"/>
     </g>
     <g id="line2d_22">
      <g>
       <use style="fill:#262626;stroke:#262626;stroke-width:0.8;" x="553.791254" xlink:href="#m7ff40300b9" y="268.48275"/>
      </g>
     </g>
     <g id="text_11">
      <!-- Nov -->
      <defs>
       <path d="M 7.421875 0 
L 7.421875 71.578125 
L 21.484375 71.578125 
L 50.78125 23.78125 
L 50.78125 71.578125 
L 64.203125 71.578125 
L 64.203125 0 
L 49.703125 0 
L 20.84375 46.6875 
L 20.84375 0 
z
" id="Arial-BoldMT-78"/>
       <path d="M 4 26.65625 
Q 4 33.5 7.375 39.890625 
Q 10.75 46.296875 16.921875 49.65625 
Q 23.09375 53.03125 30.71875 53.03125 
Q 42.484375 53.03125 50 45.390625 
Q 57.515625 37.75 57.515625 26.078125 
Q 57.515625 14.3125 49.921875 6.5625 
Q 42.328125 -1.171875 30.8125 -1.171875 
Q 23.6875 -1.171875 17.21875 2.046875 
Q 10.75 5.28125 7.375 11.5 
Q 4 17.71875 4 26.65625 
z
M 18.0625 25.921875 
Q 18.0625 18.21875 21.71875 14.109375 
Q 25.390625 10.015625 30.765625 10.015625 
Q 36.140625 10.015625 39.765625 14.109375 
Q 43.40625 18.21875 43.40625 26.03125 
Q 43.40625 33.640625 39.765625 37.734375 
Q 36.140625 41.84375 30.765625 41.84375 
Q 25.390625 41.84375 21.71875 37.734375 
Q 18.0625 33.640625 18.0625 25.921875 
z
" id="Arial-BoldMT-111"/>
       <path d="M 21.4375 0 
L 0.53125 51.859375 
L 14.9375 51.859375 
L 24.703125 25.390625 
L 27.546875 16.546875 
Q 28.65625 19.921875 28.953125 21 
Q 29.640625 23.1875 30.421875 25.390625 
L 40.28125 51.859375 
L 54.390625 51.859375 
L 33.796875 0 
z
" id="Arial-BoldMT-118"/>
      </defs>
      <g style="fill:#262626;" transform="translate(542.456879 280.572125)scale(0.12 -0.12)">
       <use xlink:href="#Arial-BoldMT-78"/>
       <use x="72.216797" xlink:href="#Arial-BoldMT-111"/>
       <use x="133.300781" xlink:href="#Arial-BoldMT-118"/>
      </g>
     </g>
    </g>
    <g id="xtick_12">
     <g id="line2d_23">
      <path clip-path="url(#p1ce1617f41)" d="M 603.980625 268.48275 
L 603.980625 23.68275 
" style="fill:none;stroke:#cccccc;stroke-linecap:round;stroke-width:0.8;"/>
     </g>
     <g id="line2d_24">
      <g>
       <use style="fill:#262626;stroke:#262626;stroke-width:0.8;" x="603.980625" xlink:href="#m7ff40300b9" y="268.48275"/>
      </g>
     </g>
     <g id="text_12">
      <!-- Dec -->
      <defs>
       <path d="M 7.234375 71.578125 
L 33.640625 71.578125 
Q 42.578125 71.578125 47.265625 70.21875 
Q 53.5625 68.359375 58.046875 63.625 
Q 62.546875 58.890625 64.890625 52.03125 
Q 67.234375 45.171875 67.234375 35.109375 
Q 67.234375 26.265625 65.046875 19.875 
Q 62.359375 12.0625 57.375 7.234375 
Q 53.609375 3.5625 47.21875 1.515625 
Q 42.4375 0 34.421875 0 
L 7.234375 0 
z
M 21.6875 59.46875 
L 21.6875 12.0625 
L 32.46875 12.0625 
Q 38.53125 12.0625 41.21875 12.75 
Q 44.734375 13.625 47.046875 15.71875 
Q 49.359375 17.828125 50.828125 22.625 
Q 52.296875 27.4375 52.296875 35.75 
Q 52.296875 44.046875 50.828125 48.484375 
Q 49.359375 52.9375 46.71875 55.421875 
Q 44.09375 57.90625 40.046875 58.796875 
Q 37.015625 59.46875 28.171875 59.46875 
z
" id="Arial-BoldMT-68"/>
      </defs>
      <g style="fill:#262626;" transform="translate(592.974375 280.572125)scale(0.12 -0.12)">
       <use xlink:href="#Arial-BoldMT-68"/>
       <use x="72.216797" xlink:href="#Arial-BoldMT-101"/>
       <use x="127.832031" xlink:href="#Arial-BoldMT-99"/>
      </g>
     </g>
    </g>
   </g>
   <g id="matplotlib.axis_2">
    <g id="ytick_1">
     <g id="line2d_25">
      <path clip-path="url(#p1ce1617f41)" d="M 45.980625 268.48275 
L 603.980625 268.48275 
" style="fill:none;stroke:#cccccc;stroke-linecap:round;stroke-width:0.8;"/>
     </g>
     <g id="line2d_26">
      <defs>
       <path d="M 0 0 
L -3 0 
" id="m84b02bac4a" style="stroke:#262626;stroke-width:0.8;"/>
      </defs>
      <g>
       <use style="fill:#262626;stroke:#262626;stroke-width:0.8;" x="45.980625" xlink:href="#m84b02bac4a" y="268.48275"/>
      </g>
     </g>
     <g id="text_13">
      <!-- 0 -->
      <defs>
       <path d="M 27.4375 71.875 
Q 37.84375 71.875 43.703125 64.453125 
Q 50.6875 55.671875 50.6875 35.296875 
Q 50.6875 14.984375 43.65625 6.109375 
Q 37.84375 -1.21875 27.4375 -1.21875 
Q 17 -1.21875 10.59375 6.8125 
Q 4.203125 14.84375 4.203125 35.453125 
Q 4.203125 55.671875 11.234375 64.546875 
Q 17.046875 71.875 27.4375 71.875 
z
M 27.4375 60.5 
Q 24.953125 60.5 23 58.90625 
Q 21.046875 57.328125 19.96875 53.21875 
Q 18.5625 47.90625 18.5625 35.296875 
Q 18.5625 22.703125 19.828125 17.984375 
Q 21.09375 13.28125 23.015625 11.71875 
Q 24.953125 10.15625 27.4375 10.15625 
Q 29.9375 10.15625 31.890625 11.734375 
Q 33.84375 13.328125 34.90625 17.4375 
Q 36.328125 22.703125 36.328125 35.296875 
Q 36.328125 47.90625 35.0625 52.609375 
Q 33.796875 57.328125 31.859375 58.90625 
Q 29.9375 60.5 27.4375 60.5 
z
" id="Arial-BoldMT-48"/>
      </defs>
      <g style="fill:#262626;" transform="translate(35.8075 272.777437)scale(0.12 -0.12)">
       <use xlink:href="#Arial-BoldMT-48"/>
      </g>
     </g>
    </g>
    <g id="ytick_2">
     <g id="line2d_27">
      <path clip-path="url(#p1ce1617f41)" d="M 45.980625 219.52275 
L 603.980625 219.52275 
" style="fill:none;stroke:#cccccc;stroke-linecap:round;stroke-width:0.8;"/>
     </g>
     <g id="line2d_28">
      <g>
       <use style="fill:#262626;stroke:#262626;stroke-width:0.8;" x="45.980625" xlink:href="#m84b02bac4a" y="219.52275"/>
      </g>
     </g>
     <g id="text_14">
      <!-- 20 -->
      <defs>
       <path d="M 50.59375 12.75 
L 50.59375 0 
L 2.484375 0 
Q 3.265625 7.234375 7.171875 13.703125 
Q 11.078125 20.171875 22.609375 30.859375 
Q 31.890625 39.5 33.984375 42.578125 
Q 36.8125 46.828125 36.8125 50.984375 
Q 36.8125 55.5625 34.34375 58.03125 
Q 31.890625 60.5 27.546875 60.5 
Q 23.25 60.5 20.703125 57.90625 
Q 18.171875 55.328125 17.78125 49.3125 
L 4.109375 50.6875 
Q 5.328125 62.015625 11.765625 66.9375 
Q 18.21875 71.875 27.875 71.875 
Q 38.484375 71.875 44.53125 66.15625 
Q 50.59375 60.453125 50.59375 51.953125 
Q 50.59375 47.125 48.859375 42.75 
Q 47.125 38.375 43.359375 33.59375 
Q 40.875 30.421875 34.375 24.453125 
Q 27.875 18.5 26.140625 16.546875 
Q 24.421875 14.59375 23.34375 12.75 
z
" id="Arial-BoldMT-50"/>
      </defs>
      <g style="fill:#262626;" transform="translate(29.134375 223.817437)scale(0.12 -0.12)">
       <use xlink:href="#Arial-BoldMT-50"/>
       <use x="55.615234" xlink:href="#Arial-BoldMT-48"/>
      </g>
     </g>
    </g>
    <g id="ytick_3">
     <g id="line2d_29">
      <path clip-path="url(#p1ce1617f41)" d="M 45.980625 170.56275 
L 603.980625 170.56275 
" style="fill:none;stroke:#cccccc;stroke-linecap:round;stroke-width:0.8;"/>
     </g>
     <g id="line2d_30">
      <g>
       <use style="fill:#262626;stroke:#262626;stroke-width:0.8;" x="45.980625" xlink:href="#m84b02bac4a" y="170.56275"/>
      </g>
     </g>
     <g id="text_15">
      <!-- 40 -->
      <defs>
       <path d="M 31.15625 0 
L 31.15625 14.40625 
L 1.859375 14.40625 
L 1.859375 26.421875 
L 32.90625 71.875 
L 44.4375 71.875 
L 44.4375 26.46875 
L 53.328125 26.46875 
L 53.328125 14.40625 
L 44.4375 14.40625 
L 44.4375 0 
z
M 31.15625 26.46875 
L 31.15625 50.921875 
L 14.703125 26.46875 
z
" id="Arial-BoldMT-52"/>
      </defs>
      <g style="fill:#262626;" transform="translate(29.134375 174.857437)scale(0.12 -0.12)">
       <use xlink:href="#Arial-BoldMT-52"/>
       <use x="55.615234" xlink:href="#Arial-BoldMT-48"/>
      </g>
     </g>
    </g>
    <g id="ytick_4">
     <g id="line2d_31">
      <path clip-path="url(#p1ce1617f41)" d="M 45.980625 121.60275 
L 603.980625 121.60275 
" style="fill:none;stroke:#cccccc;stroke-linecap:round;stroke-width:0.8;"/>
     </g>
     <g id="line2d_32">
      <g>
       <use style="fill:#262626;stroke:#262626;stroke-width:0.8;" x="45.980625" xlink:href="#m84b02bac4a" y="121.60275"/>
      </g>
     </g>
     <g id="text_16">
      <!-- 60 -->
      <defs>
       <path d="M 50.734375 54.046875 
L 37.453125 52.59375 
Q 36.96875 56.6875 34.90625 58.640625 
Q 32.859375 60.59375 29.59375 60.59375 
Q 25.25 60.59375 22.234375 56.6875 
Q 19.234375 52.78125 18.453125 40.4375 
Q 23.578125 46.484375 31.203125 46.484375 
Q 39.796875 46.484375 45.921875 39.9375 
Q 52.046875 33.40625 52.046875 23.046875 
Q 52.046875 12.0625 45.59375 5.421875 
Q 39.15625 -1.21875 29.046875 -1.21875 
Q 18.21875 -1.21875 11.234375 7.203125 
Q 4.25 15.625 4.25 34.8125 
Q 4.25 54.5 11.515625 63.1875 
Q 18.796875 71.875 30.421875 71.875 
Q 38.578125 71.875 43.921875 67.3125 
Q 49.265625 62.75 50.734375 54.046875 
z
M 19.625 24.125 
Q 19.625 17.4375 22.703125 13.796875 
Q 25.78125 10.15625 29.734375 10.15625 
Q 33.546875 10.15625 36.078125 13.125 
Q 38.625 16.109375 38.625 22.90625 
Q 38.625 29.890625 35.890625 33.125 
Q 33.15625 36.375 29.046875 36.375 
Q 25.09375 36.375 22.359375 33.265625 
Q 19.625 30.171875 19.625 24.125 
z
" id="Arial-BoldMT-54"/>
      </defs>
      <g style="fill:#262626;" transform="translate(29.134375 125.897437)scale(0.12 -0.12)">
       <use xlink:href="#Arial-BoldMT-54"/>
       <use x="55.615234" xlink:href="#Arial-BoldMT-48"/>
      </g>
     </g>
    </g>
    <g id="ytick_5">
     <g id="line2d_33">
      <path clip-path="url(#p1ce1617f41)" d="M 45.980625 72.64275 
L 603.980625 72.64275 
" style="fill:none;stroke:#cccccc;stroke-linecap:round;stroke-width:0.8;"/>
     </g>
     <g id="line2d_34">
      <g>
       <use style="fill:#262626;stroke:#262626;stroke-width:0.8;" x="45.980625" xlink:href="#m84b02bac4a" y="72.64275"/>
      </g>
     </g>
     <g id="text_17">
      <!-- 80 -->
      <defs>
       <path d="M 16.015625 38.625 
Q 10.6875 40.875 8.265625 44.796875 
Q 5.859375 48.734375 5.859375 53.421875 
Q 5.859375 61.421875 11.453125 66.640625 
Q 17.046875 71.875 27.34375 71.875 
Q 37.546875 71.875 43.1875 66.640625 
Q 48.828125 61.421875 48.828125 53.421875 
Q 48.828125 48.4375 46.234375 44.546875 
Q 43.65625 40.671875 38.96875 38.625 
Q 44.921875 36.234375 48.015625 31.640625 
Q 51.125 27.046875 51.125 21.046875 
Q 51.125 11.140625 44.796875 4.9375 
Q 38.484375 -1.265625 27.984375 -1.265625 
Q 18.21875 -1.265625 11.71875 3.859375 
Q 4.046875 9.90625 4.046875 20.453125 
Q 4.046875 26.265625 6.921875 31.125 
Q 9.8125 35.984375 16.015625 38.625 
z
M 18.84375 52.4375 
Q 18.84375 48.34375 21.15625 46.046875 
Q 23.484375 43.75 27.34375 43.75 
Q 31.25 43.75 33.59375 46.0625 
Q 35.9375 48.390625 35.9375 52.484375 
Q 35.9375 56.34375 33.609375 58.65625 
Q 31.296875 60.984375 27.484375 60.984375 
Q 23.53125 60.984375 21.1875 58.640625 
Q 18.84375 56.296875 18.84375 52.4375 
z
M 17.578125 21.78125 
Q 17.578125 16.109375 20.484375 12.9375 
Q 23.390625 9.765625 27.734375 9.765625 
Q 31.984375 9.765625 34.765625 12.8125 
Q 37.546875 15.875 37.546875 21.625 
Q 37.546875 26.65625 34.71875 29.703125 
Q 31.890625 32.765625 27.546875 32.765625 
Q 22.515625 32.765625 20.046875 29.296875 
Q 17.578125 25.828125 17.578125 21.78125 
z
" id="Arial-BoldMT-56"/>
      </defs>
      <g style="fill:#262626;" transform="translate(29.134375 76.937437)scale(0.12 -0.12)">
       <use xlink:href="#Arial-BoldMT-56"/>
       <use x="55.615234" xlink:href="#Arial-BoldMT-48"/>
      </g>
     </g>
    </g>
    <g id="ytick_6">
     <g id="line2d_35">
      <path clip-path="url(#p1ce1617f41)" d="M 45.980625 23.68275 
L 603.980625 23.68275 
" style="fill:none;stroke:#cccccc;stroke-linecap:round;stroke-width:0.8;"/>
     </g>
     <g id="line2d_36">
      <g>
       <use style="fill:#262626;stroke:#262626;stroke-width:0.8;" x="45.980625" xlink:href="#m84b02bac4a" y="23.68275"/>
      </g>
     </g>
     <g id="text_18">
      <!-- 100 -->
      <defs>
       <path d="M 39.359375 0 
L 25.640625 0 
L 25.640625 51.703125 
Q 18.109375 44.671875 7.90625 41.3125 
L 7.90625 53.765625 
Q 13.28125 55.515625 19.578125 60.421875 
Q 25.875 65.328125 28.21875 71.875 
L 39.359375 71.875 
z
" id="Arial-BoldMT-49"/>
      </defs>
      <g style="fill:#262626;" transform="translate(22.46125 27.977437)scale(0.12 -0.12)">
       <use xlink:href="#Arial-BoldMT-49"/>
       <use x="55.615234" xlink:href="#Arial-BoldMT-48"/>
       <use x="111.230469" xlink:href="#Arial-BoldMT-48"/>
      </g>
     </g>
    </g>
    <g id="text_19">
     <!-- Percent of Load Served by Carbon-Free Energy -->
     <defs>
      <path d="M 7.28125 0 
L 7.28125 71.578125 
L 30.46875 71.578125 
Q 43.65625 71.578125 47.65625 70.515625 
Q 53.8125 68.890625 57.953125 63.5 
Q 62.109375 58.109375 62.109375 49.5625 
Q 62.109375 42.96875 59.71875 38.46875 
Q 57.328125 33.984375 53.640625 31.421875 
Q 49.953125 28.859375 46.140625 28.03125 
Q 40.96875 27 31.15625 27 
L 21.734375 27 
L 21.734375 0 
z
M 21.734375 59.46875 
L 21.734375 39.15625 
L 29.640625 39.15625 
Q 38.1875 39.15625 41.0625 40.28125 
Q 43.953125 41.40625 45.578125 43.796875 
Q 47.21875 46.1875 47.21875 49.359375 
Q 47.21875 53.265625 44.921875 55.796875 
Q 42.625 58.34375 39.109375 58.984375 
Q 36.53125 59.46875 28.71875 59.46875 
z
" id="Arial-BoldMT-80"/>
      <path id="Arial-BoldMT-32"/>
      <path d="M 1.171875 51.859375 
L 8.796875 51.859375 
L 8.796875 55.765625 
Q 8.796875 62.3125 10.1875 65.53125 
Q 11.578125 68.75 15.3125 70.765625 
Q 19.046875 72.796875 24.75 72.796875 
Q 30.609375 72.796875 36.234375 71.046875 
L 34.375 61.46875 
Q 31.109375 62.25 28.078125 62.25 
Q 25.09375 62.25 23.796875 60.859375 
Q 22.515625 59.46875 22.515625 55.515625 
L 22.515625 51.859375 
L 32.765625 51.859375 
L 32.765625 41.0625 
L 22.515625 41.0625 
L 22.515625 0 
L 8.796875 0 
L 8.796875 41.0625 
L 1.171875 41.0625 
z
" id="Arial-BoldMT-102"/>
      <path d="M 7.671875 0 
L 7.671875 71 
L 22.125 71 
L 22.125 12.0625 
L 58.0625 12.0625 
L 58.0625 0 
z
" id="Arial-BoldMT-76"/>
      <path d="M 54.734375 0 
L 42 0 
L 42 7.625 
Q 38.8125 3.171875 34.484375 1 
Q 30.171875 -1.171875 25.78125 -1.171875 
Q 16.84375 -1.171875 10.46875 6.03125 
Q 4.109375 13.234375 4.109375 26.125 
Q 4.109375 39.3125 10.296875 46.171875 
Q 16.5 53.03125 25.984375 53.03125 
Q 34.671875 53.03125 41.015625 45.796875 
L 41.015625 71.578125 
L 54.734375 71.578125 
z
M 18.109375 27.046875 
Q 18.109375 18.75 20.40625 15.046875 
Q 23.734375 9.671875 29.6875 9.671875 
Q 34.421875 9.671875 37.734375 13.6875 
Q 41.0625 17.71875 41.0625 25.734375 
Q 41.0625 34.671875 37.84375 38.59375 
Q 34.625 42.53125 29.59375 42.53125 
Q 24.703125 42.53125 21.40625 38.640625 
Q 18.109375 34.765625 18.109375 27.046875 
z
" id="Arial-BoldMT-100"/>
      <path d="M 53.078125 26.3125 
L 67.09375 21.875 
Q 63.875 10.15625 56.375 4.46875 
Q 48.875 -1.21875 37.359375 -1.21875 
Q 23.09375 -1.21875 13.90625 8.515625 
Q 4.734375 18.265625 4.734375 35.15625 
Q 4.734375 53.03125 13.953125 62.90625 
Q 23.1875 72.796875 38.234375 72.796875 
Q 51.375 72.796875 59.578125 65.046875 
Q 64.453125 60.453125 66.890625 51.859375 
L 52.59375 48.4375 
Q 51.3125 54 47.28125 57.21875 
Q 43.265625 60.453125 37.5 60.453125 
Q 29.546875 60.453125 24.578125 54.734375 
Q 19.625 49.03125 19.625 36.234375 
Q 19.625 22.65625 24.5 16.890625 
Q 29.390625 11.140625 37.203125 11.140625 
Q 42.96875 11.140625 47.109375 14.796875 
Q 51.265625 18.453125 53.078125 26.3125 
z
" id="Arial-BoldMT-67"/>
      <path d="M 5.609375 19.09375 
L 5.609375 32.8125 
L 32.5625 32.8125 
L 32.5625 19.09375 
z
" id="Arial-BoldMT-45"/>
      <path d="M 7.28125 0 
L 7.28125 71.578125 
L 60.359375 71.578125 
L 60.359375 59.46875 
L 21.734375 59.46875 
L 21.734375 43.609375 
L 57.671875 43.609375 
L 57.671875 31.546875 
L 21.734375 31.546875 
L 21.734375 12.0625 
L 61.71875 12.0625 
L 61.71875 0 
z
" id="Arial-BoldMT-69"/>
     </defs>
     <g style="fill:#262626;" transform="translate(15.935625 281.109937)rotate(-90)scale(0.12 -0.12)">
      <use xlink:href="#Arial-BoldMT-80"/>
      <use x="66.699219" xlink:href="#Arial-BoldMT-101"/>
      <use x="122.314453" xlink:href="#Arial-BoldMT-114"/>
      <use x="161.230469" xlink:href="#Arial-BoldMT-99"/>
      <use x="216.845703" xlink:href="#Arial-BoldMT-101"/>
      <use x="272.460938" xlink:href="#Arial-BoldMT-110"/>
      <use x="333.544922" xlink:href="#Arial-BoldMT-116"/>
      <use x="366.845703" xlink:href="#Arial-BoldMT-32"/>
      <use x="394.628906" xlink:href="#Arial-BoldMT-111"/>
      <use x="455.712891" xlink:href="#Arial-BoldMT-102"/>
      <use x="489.013672" xlink:href="#Arial-BoldMT-32"/>
      <use x="516.796875" xlink:href="#Arial-BoldMT-76"/>
      <use x="577.880859" xlink:href="#Arial-BoldMT-111"/>
      <use x="638.964844" xlink:href="#Arial-BoldMT-97"/>
      <use x="694.580078" xlink:href="#Arial-BoldMT-100"/>
      <use x="755.664062" xlink:href="#Arial-BoldMT-32"/>
      <use x="783.447266" xlink:href="#Arial-BoldMT-83"/>
      <use x="850.146484" xlink:href="#Arial-BoldMT-101"/>
      <use x="905.761719" xlink:href="#Arial-BoldMT-114"/>
      <use x="944.677734" xlink:href="#Arial-BoldMT-118"/>
      <use x="1000.292969" xlink:href="#Arial-BoldMT-101"/>
      <use x="1055.908203" xlink:href="#Arial-BoldMT-100"/>
      <use x="1116.992188" xlink:href="#Arial-BoldMT-32"/>
      <use x="1144.775391" xlink:href="#Arial-BoldMT-98"/>
      <use x="1205.859375" xlink:href="#Arial-BoldMT-121"/>
      <use x="1261.474609" xlink:href="#Arial-BoldMT-32"/>
      <use x="1289.257812" xlink:href="#Arial-BoldMT-67"/>
      <use x="1361.474609" xlink:href="#Arial-BoldMT-97"/>
      <use x="1417.089844" xlink:href="#Arial-BoldMT-114"/>
      <use x="1456.005859" xlink:href="#Arial-BoldMT-98"/>
      <use x="1517.089844" xlink:href="#Arial-BoldMT-111"/>
      <use x="1578.173828" xlink:href="#Arial-BoldMT-110"/>
      <use x="1639.257812" xlink:href="#Arial-BoldMT-45"/>
      <use x="1672.558594" xlink:href="#Arial-BoldMT-70"/>
      <use x="1733.642578" xlink:href="#Arial-BoldMT-114"/>
      <use x="1772.558594" xlink:href="#Arial-BoldMT-101"/>
      <use x="1828.173828" xlink:href="#Arial-BoldMT-101"/>
      <use x="1883.789062" xlink:href="#Arial-BoldMT-32"/>
      <use x="1911.572266" xlink:href="#Arial-BoldMT-69"/>
      <use x="1978.271484" xlink:href="#Arial-BoldMT-110"/>
      <use x="2039.355469" xlink:href="#Arial-BoldMT-101"/>
      <use x="2094.970703" xlink:href="#Arial-BoldMT-114"/>
      <use x="2133.886719" xlink:href="#Arial-BoldMT-103"/>
      <use x="2194.970703" xlink:href="#Arial-BoldMT-121"/>
     </g>
    </g>
   </g>
   <g id="PolyCollection_1">
    <defs>
     <path d="M 45.980625 -90.08866 
L 45.980625 -46.155 
L 97.771044 -46.155 
L 144.549487 -46.155 
L 196.270296 -46.155 
L 246.390056 -46.155 
L 298.180475 -46.155 
L 348.300236 -46.155 
L 400.090655 -46.155 
L 451.881074 -46.155 
L 502.000835 -46.155 
L 553.791254 -46.155 
L 603.980625 -46.155 
L 603.980625 -95.121606 
L 603.980625 -95.121606 
L 553.791254 -95.840275 
L 502.000835 -94.860685 
L 451.881074 -90.372386 
L 400.090655 -83.73407 
L 348.300236 -82.412689 
L 298.180475 -93.874107 
L 246.390056 -101.802228 
L 196.270296 -97.709584 
L 144.549487 -94.891653 
L 97.771044 -90.908179 
L 45.980625 -90.08866 
z
" id="ma67a776e92"/>
    </defs>
    <g clip-path="url(#p1ce1617f41)">
     <use style="fill:#486ead;fill-opacity:0.9;" x="0" xlink:href="#ma67a776e92" y="314.63775"/>
    </g>
   </g>
   <g id="PolyCollection_2">
    <defs>
     <path d="M 45.980625 -93.356523 
L 45.980625 -90.08866 
L 97.771044 -90.908179 
L 144.549487 -94.891653 
L 196.270296 -97.709584 
L 246.390056 -101.802228 
L 298.180475 -93.874107 
L 348.300236 -82.412689 
L 400.090655 -83.73407 
L 451.881074 -90.372386 
L 502.000835 -94.860685 
L 553.791254 -95.840275 
L 603.980625 -95.121606 
L 603.980625 -98.727392 
L 603.980625 -98.727392 
L 553.791254 -99.834709 
L 502.000835 -98.918676 
L 451.881074 -93.996489 
L 400.090655 -86.973093 
L 348.300236 -85.327521 
L 298.180475 -97.618139 
L 246.390056 -105.687021 
L 196.270296 -100.64242 
L 144.549487 -98.092163 
L 97.771044 -94.469607 
L 45.980625 -93.356523 
z
" id="m88923b7b5a"/>
    </defs>
    <g clip-path="url(#p1ce1617f41)">
     <use style="fill:#ebc054;fill-opacity:0.9;" x="0" xlink:href="#m88923b7b5a" y="314.63775"/>
    </g>
   </g>
   <g id="PolyCollection_3">
    <defs>
     <path d="M 45.980625 -102.195316 
L 45.980625 -93.356523 
L 97.771044 -94.469607 
L 144.549487 -98.092163 
L 196.270296 -100.64242 
L 246.390056 -105.687021 
L 298.180475 -97.618139 
L 348.300236 -85.327521 
L 400.090655 -86.973093 
L 451.881074 -93.996489 
L 502.000835 -98.918676 
L 553.791254 -99.834709 
L 603.980625 -98.727392 
L 603.980625 -108.059543 
L 603.980625 -108.059543 
L 553.791254 -107.623315 
L 502.000835 -107.13135 
L 451.881074 -99.262334 
L 400.090655 -90.475447 
L 348.300236 -88.387064 
L 298.180475 -103.276838 
L 246.390056 -112.211119 
L 196.270296 -110.231614 
L 144.549487 -107.467289 
L 97.771044 -103.713793 
L 45.980625 -102.195316 
z
" id="m08eb33276e"/>
    </defs>
    <g clip-path="url(#p1ce1617f41)">
     <use style="fill:#49ace2;fill-opacity:0.9;" x="0" xlink:href="#m08eb33276e" y="314.63775"/>
    </g>
   </g>
   <g id="PolyCollection_4">
    <defs>
     <path d="M 45.980625 -173.13913 
L 45.980625 -102.195316 
L 97.771044 -103.713793 
L 144.549487 -107.467289 
L 196.270296 -110.231614 
L 246.390056 -112.211119 
L 298.180475 -103.276838 
L 348.300236 -88.387064 
L 400.090655 -90.475447 
L 451.881074 -99.262334 
L 502.000835 -107.13135 
L 553.791254 -107.623315 
L 603.980625 -108.059543 
L 603.980625 -181.892412 
L 603.980625 -181.892412 
L 553.791254 -186.753155 
L 502.000835 -189.928061 
L 451.881074 -173.852697 
L 400.090655 -153.945199 
L 348.300236 -145.76361 
L 298.180475 -175.603614 
L 246.390056 -195.216969 
L 196.270296 -178.523364 
L 144.549487 -161.201797 
L 97.771044 -176.09254 
L 45.980625 -173.13913 
z
" id="md46fdac0c6"/>
    </defs>
    <g clip-path="url(#p1ce1617f41)">
     <use style="fill:#a74038;fill-opacity:0.9;" x="0" xlink:href="#md46fdac0c6" y="314.63775"/>
    </g>
   </g>
   <g id="line2d_37">
    <path clip-path="url(#p1ce1617f41)" d="M 45.980625 224.54909 
L 97.771044 223.729571 
L 144.549487 219.746097 
L 196.270296 216.928166 
L 246.390056 212.835522 
L 298.180475 220.763643 
L 348.300236 232.225061 
L 400.090655 230.90368 
L 451.881074 224.265364 
L 502.000835 219.777065 
L 553.791254 218.797475 
L 603.980625 219.516144 
" style="fill:none;"/>
   </g>
   <g id="line2d_38">
    <path clip-path="url(#p1ce1617f41)" d="M 45.980625 221.281227 
L 97.771044 220.168143 
L 144.549487 216.545587 
L 196.270296 213.99533 
L 246.390056 208.950729 
L 298.180475 217.019611 
L 348.300236 229.310229 
L 400.090655 227.664657 
L 451.881074 220.641261 
L 502.000835 215.719074 
L 553.791254 214.803041 
L 603.980625 215.910358 
" style="fill:none;"/>
   </g>
   <g id="line2d_39">
    <path clip-path="url(#p1ce1617f41)" d="M 45.980625 212.442434 
L 97.771044 210.923957 
L 144.549487 207.170461 
L 196.270296 204.406136 
L 246.390056 202.426631 
L 298.180475 211.360912 
L 348.300236 226.250686 
L 400.090655 224.162303 
L 451.881074 215.375416 
L 502.000835 207.5064 
L 553.791254 207.014435 
L 603.980625 206.578207 
" style="fill:none;"/>
   </g>
   <g id="line2d_40">
    <path clip-path="url(#p1ce1617f41)" d="M 45.980625 141.49862 
L 97.771044 138.54521 
L 144.549487 153.435953 
L 196.270296 136.114386 
L 246.390056 119.420781 
L 298.180475 139.034136 
L 348.300236 168.87414 
L 400.090655 160.692551 
L 451.881074 140.785053 
L 502.000835 124.709689 
L 553.791254 127.884595 
L 603.980625 132.745338 
" style="fill:none;"/>
   </g>
   <g id="line2d_41">
    <path clip-path="url(#p1ce1617f41)" d="M 45.980625 103.589126 
L 97.771044 102.683576 
L 144.549487 100.370681 
L 196.270296 92.568898 
L 246.390056 88.57093 
L 298.180475 101.301752 
L 348.300236 129.101029 
L 400.090655 123.472765 
L 451.881074 106.520861 
L 502.000835 99.679528 
L 553.791254 99.202593 
L 603.980625 102.73077 
" style="fill:none;stroke:#000000;stroke-dasharray:1,1.65;stroke-dashoffset:0;"/>
   </g>
   <g id="line2d_42">
    <path clip-path="url(#p1ce1617f41)" d="M 45.980625 212.052313 
L 73.880625 212.052313 
" style="fill:none;stroke:#000000;stroke-linecap:round;"/>
   </g>
   <g id="line2d_43">
    <path clip-path="url(#p1ce1617f41)" d="M 45.980625 141.703917 
L 73.880625 141.703917 
" style="fill:none;stroke:#000000;stroke-linecap:round;"/>
   </g>
   <g id="patch_3">
    <path d="M 45.980625 268.48275 
L 45.980625 23.68275 
" style="fill:none;stroke:#262626;stroke-linecap:square;stroke-linejoin:miter;"/>
   </g>
   <g id="patch_4">
    <path d="M 603.980625 268.48275 
L 603.980625 23.68275 
" style="fill:none;stroke:#262626;stroke-linecap:square;stroke-linejoin:miter;"/>
   </g>
   <g id="patch_5">
    <path d="M 45.980625 268.48275 
L 603.980625 268.48275 
" style="fill:none;stroke:#262626;stroke-linecap:square;stroke-linejoin:miter;"/>
   </g>
   <g id="patch_6">
    <path d="M 45.980625 23.68275 
L 603.980625 23.68275 
" style="fill:none;stroke:#262626;stroke-linecap:square;stroke-linejoin:miter;"/>
   </g>
   <g id="text_20">
    <g id="patch_7">
     <path d="M 73.880625 218.177938 
L 339.64125 218.177938 
Q 343.24125 218.177938 343.24125 214.577938 
L 343.24125 203.316688 
Q 343.24125 199.716688 339.64125 199.716688 
L 73.880625 199.716688 
Q 70.280625 199.716688 70.280625 203.316688 
L 70.280625 214.577938 
Q 70.280625 218.177938 73.880625 218.177938 
z
" style="fill:#32cd32;opacity:0.9;stroke:#000000;stroke-linejoin:miter;"/>
    </g>
    <!-- Renewable: 23% + Imports: 38% (70% by 2030) -->
    <defs>
     <path d="M 7.328125 0 
L 7.328125 71.578125 
L 37.75 71.578125 
Q 49.21875 71.578125 54.421875 69.640625 
Q 59.625 67.71875 62.75 62.78125 
Q 65.875 57.859375 65.875 51.515625 
Q 65.875 43.453125 61.125 38.203125 
Q 56.390625 32.953125 46.96875 31.59375 
Q 51.65625 28.859375 54.703125 25.578125 
Q 57.765625 22.3125 62.9375 13.96875 
L 71.6875 0 
L 54.390625 0 
L 43.953125 15.578125 
Q 38.375 23.921875 36.328125 26.09375 
Q 34.28125 28.265625 31.984375 29.078125 
Q 29.6875 29.890625 24.703125 29.890625 
L 21.78125 29.890625 
L 21.78125 0 
z
M 21.78125 41.3125 
L 32.46875 41.3125 
Q 42.875 41.3125 45.453125 42.1875 
Q 48.046875 43.0625 49.515625 45.203125 
Q 50.984375 47.359375 50.984375 50.59375 
Q 50.984375 54.203125 49.046875 56.421875 
Q 47.125 58.640625 43.609375 59.234375 
Q 41.84375 59.46875 33.0625 59.46875 
L 21.78125 59.46875 
z
" id="Arial-BoldMT-82"/>
     <path d="M 16.84375 0 
L 0.4375 51.859375 
L 13.765625 51.859375 
L 23.484375 17.875 
L 32.421875 51.859375 
L 45.65625 51.859375 
L 54.296875 17.875 
L 64.203125 51.859375 
L 77.734375 51.859375 
L 61.078125 0 
L 47.90625 0 
L 38.96875 33.34375 
L 30.171875 0 
z
" id="Arial-BoldMT-119"/>
     <path d="M 9.8125 38.140625 
L 9.8125 51.859375 
L 23.53125 51.859375 
L 23.53125 38.140625 
z
M 9.8125 0 
L 9.8125 13.71875 
L 23.53125 13.71875 
L 23.53125 0 
z
" id="Arial-BoldMT-58"/>
     <path d="M 3.765625 19 
L 17.046875 20.609375 
Q 17.671875 15.53125 20.453125 12.84375 
Q 23.25 10.15625 27.203125 10.15625 
Q 31.453125 10.15625 34.34375 13.375 
Q 37.25 16.609375 37.25 22.078125 
Q 37.25 27.25 34.46875 30.265625 
Q 31.6875 33.296875 27.6875 33.296875 
Q 25.046875 33.296875 21.390625 32.28125 
L 22.90625 43.453125 
Q 28.46875 43.3125 31.390625 45.875 
Q 34.328125 48.4375 34.328125 52.6875 
Q 34.328125 56.296875 32.171875 58.4375 
Q 30.03125 60.59375 26.46875 60.59375 
Q 22.953125 60.59375 20.453125 58.15625 
Q 17.96875 55.71875 17.4375 51.03125 
L 4.78125 53.171875 
Q 6.109375 59.671875 8.765625 63.546875 
Q 11.421875 67.4375 16.1875 69.65625 
Q 20.953125 71.875 26.859375 71.875 
Q 36.96875 71.875 43.0625 65.4375 
Q 48.09375 60.15625 48.09375 53.515625 
Q 48.09375 44.09375 37.796875 38.484375 
Q 43.953125 37.15625 47.625 32.5625 
Q 51.3125 27.984375 51.3125 21.484375 
Q 51.3125 12.0625 44.421875 5.421875 
Q 37.546875 -1.21875 27.296875 -1.21875 
Q 17.578125 -1.21875 11.171875 4.375 
Q 4.78125 9.96875 3.765625 19 
z
" id="Arial-BoldMT-51"/>
     <path d="M 4.34375 53.90625 
Q 4.34375 63.53125 8.5625 68.15625 
Q 12.796875 72.796875 20.015625 72.796875 
Q 27.484375 72.796875 31.703125 68.1875 
Q 35.9375 63.578125 35.9375 53.90625 
Q 35.9375 44.28125 31.703125 39.640625 
Q 27.484375 35.015625 20.265625 35.015625 
Q 12.796875 35.015625 8.5625 39.625 
Q 4.34375 44.234375 4.34375 53.90625 
z
M 15.046875 54 
Q 15.046875 47.015625 16.65625 44.625 
Q 17.875 42.875 20.015625 42.875 
Q 22.21875 42.875 23.4375 44.625 
Q 25 47.015625 25 54 
Q 25 60.984375 23.4375 63.328125 
Q 22.21875 65.140625 20.015625 65.140625 
Q 17.875 65.140625 16.65625 63.375 
Q 15.046875 60.984375 15.046875 54 
z
M 30.46875 -2.734375 
L 20.3125 -2.734375 
L 58.453125 72.796875 
L 68.3125 72.796875 
z
M 52.640625 16.0625 
Q 52.640625 25.6875 56.859375 30.328125 
Q 61.078125 34.96875 68.40625 34.96875 
Q 75.78125 34.96875 80 30.328125 
Q 84.234375 25.6875 84.234375 16.0625 
Q 84.234375 6.390625 80 1.75 
Q 75.78125 -2.875 68.5625 -2.875 
Q 61.078125 -2.875 56.859375 1.75 
Q 52.640625 6.390625 52.640625 16.0625 
z
M 63.328125 16.109375 
Q 63.328125 9.125 64.9375 6.78125 
Q 66.15625 4.984375 68.3125 4.984375 
Q 70.515625 4.984375 71.6875 6.734375 
Q 73.296875 9.125 73.296875 16.109375 
Q 73.296875 23.09375 71.734375 25.484375 
Q 70.515625 27.25 68.3125 27.25 
Q 66.109375 27.25 64.9375 25.484375 
Q 63.328125 23.09375 63.328125 16.109375 
z
" id="Arial-BoldMT-37"/>
     <path d="M 22.90625 10.296875 
L 22.90625 28.90625 
L 4.15625 28.90625 
L 4.15625 41.75 
L 22.90625 41.75 
L 22.90625 60.359375 
L 35.40625 60.359375 
L 35.40625 41.75 
L 54.203125 41.75 
L 54.203125 28.90625 
L 35.40625 28.90625 
L 35.40625 10.296875 
z
" id="Arial-BoldMT-43"/>
     <path d="M 6.84375 0 
L 6.84375 71.578125 
L 21.296875 71.578125 
L 21.296875 0 
z
" id="Arial-BoldMT-73"/>
     <path d="M 6.15625 51.859375 
L 18.796875 51.859375 
L 18.796875 44.78125 
Q 25.59375 53.03125 34.96875 53.03125 
Q 39.9375 53.03125 43.59375 50.96875 
Q 47.265625 48.921875 49.609375 44.78125 
Q 53.03125 48.921875 56.984375 50.96875 
Q 60.9375 53.03125 65.4375 53.03125 
Q 71.140625 53.03125 75.09375 50.703125 
Q 79.046875 48.390625 81 43.890625 
Q 82.421875 40.578125 82.421875 33.15625 
L 82.421875 0 
L 68.703125 0 
L 68.703125 29.640625 
Q 68.703125 37.359375 67.28125 39.59375 
Q 65.375 42.53125 61.421875 42.53125 
Q 58.546875 42.53125 56 40.765625 
Q 53.46875 39.015625 52.34375 35.625 
Q 51.21875 32.234375 51.21875 24.90625 
L 51.21875 0 
L 37.5 0 
L 37.5 28.421875 
Q 37.5 35.984375 36.765625 38.171875 
Q 36.03125 40.375 34.484375 41.453125 
Q 32.953125 42.53125 30.328125 42.53125 
Q 27.15625 42.53125 24.609375 40.8125 
Q 22.078125 39.109375 20.96875 35.890625 
Q 19.875 32.671875 19.875 25.203125 
L 19.875 0 
L 6.15625 0 
z
" id="Arial-BoldMT-109"/>
     <path d="M 2.34375 14.796875 
L 16.109375 16.890625 
Q 17 12.890625 19.671875 10.8125 
Q 22.359375 8.734375 27.203125 8.734375 
Q 32.515625 8.734375 35.203125 10.6875 
Q 37.015625 12.0625 37.015625 14.359375 
Q 37.015625 15.921875 36.03125 16.9375 
Q 35.015625 17.921875 31.453125 18.75 
Q 14.84375 22.40625 10.40625 25.4375 
Q 4.25 29.640625 4.25 37.109375 
Q 4.25 43.84375 9.5625 48.4375 
Q 14.890625 53.03125 26.078125 53.03125 
Q 36.71875 53.03125 41.890625 49.5625 
Q 47.078125 46.09375 49.03125 39.3125 
L 36.078125 36.921875 
Q 35.25 39.9375 32.921875 41.546875 
Q 30.609375 43.171875 26.3125 43.171875 
Q 20.90625 43.171875 18.5625 41.65625 
Q 17 40.578125 17 38.875 
Q 17 37.40625 18.359375 36.375 
Q 20.21875 35.015625 31.171875 32.515625 
Q 42.140625 30.03125 46.484375 26.421875 
Q 50.78125 22.75 50.78125 16.21875 
Q 50.78125 9.078125 44.828125 3.953125 
Q 38.875 -1.171875 27.203125 -1.171875 
Q 16.609375 -1.171875 10.421875 3.125 
Q 4.25 7.421875 2.34375 14.796875 
z
" id="Arial-BoldMT-115"/>
     <path d="M 29.9375 -21.046875 
L 20.515625 -21.046875 
Q 13.03125 -9.765625 9.125 2.390625 
Q 5.21875 14.546875 5.21875 25.921875 
Q 5.21875 40.046875 10.0625 52.640625 
Q 14.265625 63.578125 20.703125 72.796875 
L 30.078125 72.796875 
Q 23.390625 58.015625 20.875 47.625 
Q 18.359375 37.25 18.359375 25.640625 
Q 18.359375 17.625 19.84375 9.21875 
Q 21.34375 0.828125 23.921875 -6.734375 
Q 25.640625 -11.71875 29.9375 -21.046875 
z
" id="Arial-BoldMT-40"/>
     <path d="M 4.25 57.859375 
L 4.25 70.609375 
L 51.171875 70.609375 
L 51.171875 60.640625 
Q 45.359375 54.9375 39.34375 44.234375 
Q 33.34375 33.546875 30.1875 21.5 
Q 27.046875 9.46875 27.09375 0 
L 13.875 0 
Q 14.203125 14.84375 19.984375 30.265625 
Q 25.78125 45.703125 35.453125 57.859375 
z
" id="Arial-BoldMT-55"/>
     <path d="M 3.375 -21.046875 
Q 7.421875 -12.359375 9.078125 -7.71875 
Q 10.75 -3.078125 12.15625 2.96875 
Q 13.578125 9.03125 14.25 14.46875 
Q 14.9375 19.921875 14.9375 25.640625 
Q 14.9375 37.25 12.453125 47.625 
Q 9.96875 58.015625 3.265625 72.796875 
L 12.59375 72.796875 
Q 19.96875 62.3125 24.046875 50.53125 
Q 28.125 38.765625 28.125 26.65625 
Q 28.125 16.453125 24.90625 4.78125 
Q 21.234375 -8.296875 12.84375 -21.046875 
z
" id="Arial-BoldMT-41"/>
    </defs>
    <g style="fill:#262626;" transform="translate(73.880625 212.052313)scale(0.12 -0.12)">
     <use xlink:href="#Arial-BoldMT-82"/>
     <use x="72.216797" xlink:href="#Arial-BoldMT-101"/>
     <use x="127.832031" xlink:href="#Arial-BoldMT-110"/>
     <use x="188.916016" xlink:href="#Arial-BoldMT-101"/>
     <use x="244.53125" xlink:href="#Arial-BoldMT-119"/>
     <use x="322.314453" xlink:href="#Arial-BoldMT-97"/>
     <use x="377.929688" xlink:href="#Arial-BoldMT-98"/>
     <use x="439.013672" xlink:href="#Arial-BoldMT-108"/>
     <use x="466.796875" xlink:href="#Arial-BoldMT-101"/>
     <use x="522.412109" xlink:href="#Arial-BoldMT-58"/>
     <use x="555.712891" xlink:href="#Arial-BoldMT-32"/>
     <use x="583.496094" xlink:href="#Arial-BoldMT-50"/>
     <use x="639.111328" xlink:href="#Arial-BoldMT-51"/>
     <use x="694.726562" xlink:href="#Arial-BoldMT-37"/>
     <use x="783.642578" xlink:href="#Arial-BoldMT-32"/>
     <use x="811.425781" xlink:href="#Arial-BoldMT-43"/>
     <use x="869.824219" xlink:href="#Arial-BoldMT-32"/>
     <use x="897.607422" xlink:href="#Arial-BoldMT-73"/>
     <use x="925.390625" xlink:href="#Arial-BoldMT-109"/>
     <use x="1014.306641" xlink:href="#Arial-BoldMT-112"/>
     <use x="1075.390625" xlink:href="#Arial-BoldMT-111"/>
     <use x="1136.474609" xlink:href="#Arial-BoldMT-114"/>
     <use x="1175.390625" xlink:href="#Arial-BoldMT-116"/>
     <use x="1208.691406" xlink:href="#Arial-BoldMT-115"/>
     <use x="1264.306641" xlink:href="#Arial-BoldMT-58"/>
     <use x="1297.607422" xlink:href="#Arial-BoldMT-32"/>
     <use x="1325.390625" xlink:href="#Arial-BoldMT-51"/>
     <use x="1381.005859" xlink:href="#Arial-BoldMT-56"/>
     <use x="1436.621094" xlink:href="#Arial-BoldMT-37"/>
     <use x="1525.537109" xlink:href="#Arial-BoldMT-32"/>
     <use x="1553.320312" xlink:href="#Arial-BoldMT-40"/>
     <use x="1586.621094" xlink:href="#Arial-BoldMT-55"/>
     <use x="1642.236328" xlink:href="#Arial-BoldMT-48"/>
     <use x="1697.851562" xlink:href="#Arial-BoldMT-37"/>
     <use x="1786.767578" xlink:href="#Arial-BoldMT-32"/>
     <use x="1814.550781" xlink:href="#Arial-BoldMT-98"/>
     <use x="1875.634766" xlink:href="#Arial-BoldMT-121"/>
     <use x="1931.25" xlink:href="#Arial-BoldMT-32"/>
     <use x="1959.033203" xlink:href="#Arial-BoldMT-50"/>
     <use x="2014.648438" xlink:href="#Arial-BoldMT-48"/>
     <use x="2070.263672" xlink:href="#Arial-BoldMT-51"/>
     <use x="2125.878906" xlink:href="#Arial-BoldMT-48"/>
     <use x="2181.494141" xlink:href="#Arial-BoldMT-41"/>
    </g>
   </g>
   <g id="text_21">
    <g id="patch_8">
     <path d="M 73.880625 147.829542 
L 354.969375 147.829542 
Q 358.569375 147.829542 358.569375 144.229542 
L 358.569375 132.968292 
Q 358.569375 129.368292 354.969375 129.368292 
L 73.880625 129.368292 
Q 70.280625 129.368292 70.280625 132.968292 
L 70.280625 144.229542 
Q 70.280625 147.829542 73.880625 147.829542 
z
" style="fill:#7cfc00;opacity:0.9;stroke:#000000;stroke-linejoin:miter;"/>
    </g>
    <!-- Carbon-Free: 52% + Imports: 67% (100% by 2040) -->
    <defs>
     <path d="M 4.4375 18.40625 
L 18.109375 19.828125 
Q 18.703125 15.1875 21.578125 12.46875 
Q 24.46875 9.765625 28.21875 9.765625 
Q 32.515625 9.765625 35.5 13.25 
Q 38.484375 16.75 38.484375 23.78125 
Q 38.484375 30.375 35.515625 33.671875 
Q 32.5625 36.96875 27.828125 36.96875 
Q 21.921875 36.96875 17.234375 31.734375 
L 6.109375 33.34375 
L 13.140625 70.609375 
L 49.421875 70.609375 
L 49.421875 57.765625 
L 23.53125 57.765625 
L 21.390625 45.609375 
Q 25.984375 47.90625 30.765625 47.90625 
Q 39.890625 47.90625 46.234375 41.265625 
Q 52.59375 34.625 52.59375 24.03125 
Q 52.59375 15.1875 47.46875 8.25 
Q 40.484375 -1.21875 28.078125 -1.21875 
Q 18.171875 -1.21875 11.921875 4.09375 
Q 5.671875 9.421875 4.4375 18.40625 
z
" id="Arial-BoldMT-53"/>
    </defs>
    <g style="fill:#262626;" transform="translate(73.880625 141.703917)scale(0.12 -0.12)">
     <use xlink:href="#Arial-BoldMT-67"/>
     <use x="72.216797" xlink:href="#Arial-BoldMT-97"/>
     <use x="127.832031" xlink:href="#Arial-BoldMT-114"/>
     <use x="166.748047" xlink:href="#Arial-BoldMT-98"/>
     <use x="227.832031" xlink:href="#Arial-BoldMT-111"/>
     <use x="288.916016" xlink:href="#Arial-BoldMT-110"/>
     <use x="350" xlink:href="#Arial-BoldMT-45"/>
     <use x="383.300781" xlink:href="#Arial-BoldMT-70"/>
     <use x="444.384766" xlink:href="#Arial-BoldMT-114"/>
     <use x="483.300781" xlink:href="#Arial-BoldMT-101"/>
     <use x="538.916016" xlink:href="#Arial-BoldMT-101"/>
     <use x="594.53125" xlink:href="#Arial-BoldMT-58"/>
     <use x="627.832031" xlink:href="#Arial-BoldMT-32"/>
     <use x="655.615234" xlink:href="#Arial-BoldMT-53"/>
     <use x="711.230469" xlink:href="#Arial-BoldMT-50"/>
     <use x="766.845703" xlink:href="#Arial-BoldMT-37"/>
     <use x="855.761719" xlink:href="#Arial-BoldMT-32"/>
     <use x="883.544922" xlink:href="#Arial-BoldMT-43"/>
     <use x="941.943359" xlink:href="#Arial-BoldMT-32"/>
     <use x="969.726562" xlink:href="#Arial-BoldMT-73"/>
     <use x="997.509766" xlink:href="#Arial-BoldMT-109"/>
     <use x="1086.425781" xlink:href="#Arial-BoldMT-112"/>
     <use x="1147.509766" xlink:href="#Arial-BoldMT-111"/>
     <use x="1208.59375" xlink:href="#Arial-BoldMT-114"/>
     <use x="1247.509766" xlink:href="#Arial-BoldMT-116"/>
     <use x="1280.810547" xlink:href="#Arial-BoldMT-115"/>
     <use x="1336.425781" xlink:href="#Arial-BoldMT-58"/>
     <use x="1369.726562" xlink:href="#Arial-BoldMT-32"/>
     <use x="1397.509766" xlink:href="#Arial-BoldMT-54"/>
     <use x="1453.125" xlink:href="#Arial-BoldMT-55"/>
     <use x="1508.740234" xlink:href="#Arial-BoldMT-37"/>
     <use x="1597.65625" xlink:href="#Arial-BoldMT-32"/>
     <use x="1625.439453" xlink:href="#Arial-BoldMT-40"/>
     <use x="1658.740234" xlink:href="#Arial-BoldMT-49"/>
     <use x="1714.355469" xlink:href="#Arial-BoldMT-48"/>
     <use x="1769.970703" xlink:href="#Arial-BoldMT-48"/>
     <use x="1825.585938" xlink:href="#Arial-BoldMT-37"/>
     <use x="1914.501953" xlink:href="#Arial-BoldMT-32"/>
     <use x="1942.285156" xlink:href="#Arial-BoldMT-98"/>
     <use x="2003.369141" xlink:href="#Arial-BoldMT-121"/>
     <use x="2058.984375" xlink:href="#Arial-BoldMT-32"/>
     <use x="2086.767578" xlink:href="#Arial-BoldMT-50"/>
     <use x="2142.382812" xlink:href="#Arial-BoldMT-48"/>
     <use x="2197.998047" xlink:href="#Arial-BoldMT-52"/>
     <use x="2253.613281" xlink:href="#Arial-BoldMT-48"/>
     <use x="2309.228516" xlink:href="#Arial-BoldMT-41"/>
    </g>
   </g>
   <g id="text_22">
    <!-- Historic (2019) -->
    <defs>
     <path d="M 7.328125 0 
L 7.328125 71.578125 
L 21.78125 71.578125 
L 21.78125 43.40625 
L 50.09375 43.40625 
L 50.09375 71.578125 
L 64.546875 71.578125 
L 64.546875 0 
L 50.09375 0 
L 50.09375 31.296875 
L 21.78125 31.296875 
L 21.78125 0 
z
" id="Arial-BoldMT-72"/>
     <path d="M 7.171875 58.890625 
L 7.171875 71.578125 
L 20.90625 71.578125 
L 20.90625 58.890625 
z
M 7.171875 0 
L 7.171875 51.859375 
L 20.90625 51.859375 
L 20.90625 0 
z
" id="Arial-BoldMT-105"/>
     <path d="M 4.546875 16.546875 
L 17.828125 18.015625 
Q 18.3125 13.96875 20.359375 12.015625 
Q 22.40625 10.0625 25.78125 10.0625 
Q 30.03125 10.0625 33 13.96875 
Q 35.984375 17.875 36.8125 30.171875 
Q 31.640625 24.171875 23.875 24.171875 
Q 15.4375 24.171875 9.296875 30.6875 
Q 3.171875 37.203125 3.171875 47.65625 
Q 3.171875 58.546875 9.640625 65.203125 
Q 16.109375 71.875 26.125 71.875 
Q 37.015625 71.875 44 63.453125 
Q 50.984375 55.03125 50.984375 35.75 
Q 50.984375 16.109375 43.703125 7.421875 
Q 36.421875 -1.265625 24.75 -1.265625 
Q 16.359375 -1.265625 11.171875 3.203125 
Q 6 7.671875 4.546875 16.546875 
z
M 35.59375 46.53125 
Q 35.59375 53.171875 32.546875 56.828125 
Q 29.5 60.5 25.484375 60.5 
Q 21.6875 60.5 19.171875 57.5 
Q 16.65625 54.5 16.65625 47.65625 
Q 16.65625 40.71875 19.390625 37.46875 
Q 22.125 34.234375 26.21875 34.234375 
Q 30.171875 34.234375 32.875 37.359375 
Q 35.59375 40.484375 35.59375 46.53125 
z
" id="Arial-BoldMT-57"/>
    </defs>
    <g style="fill:#262626;" transform="translate(275.36475 17.68275)scale(0.144 -0.144)">
     <use xlink:href="#Arial-BoldMT-72"/>
     <use x="72.216797" xlink:href="#Arial-BoldMT-105"/>
     <use x="100" xlink:href="#Arial-BoldMT-115"/>
     <use x="155.615234" xlink:href="#Arial-BoldMT-116"/>
     <use x="188.916016" xlink:href="#Arial-BoldMT-111"/>
     <use x="250" xlink:href="#Arial-BoldMT-114"/>
     <use x="288.916016" xlink:href="#Arial-BoldMT-105"/>
     <use x="316.699219" xlink:href="#Arial-BoldMT-99"/>
     <use x="372.314453" xlink:href="#Arial-BoldMT-32"/>
     <use x="400.097656" xlink:href="#Arial-BoldMT-40"/>
     <use x="433.398438" xlink:href="#Arial-BoldMT-50"/>
     <use x="489.013672" xlink:href="#Arial-BoldMT-48"/>
     <use x="544.628906" xlink:href="#Arial-BoldMT-49"/>
     <use x="600.244141" xlink:href="#Arial-BoldMT-57"/>
     <use x="655.859375" xlink:href="#Arial-BoldMT-41"/>
    </g>
   </g>
   <g id="legend_1">
    <g id="line2d_44">
     <path d="M 16.054687 295.912125 
L 40.054687 295.912125 
" style="fill:none;stroke:#000000;stroke-dasharray:1,1.65;stroke-dashoffset:0;"/>
    </g>
    <g id="line2d_45"/>
    <g id="text_23">
     <!-- Total + Imports -->
     <defs>
      <path d="M 23.390625 0 
L 23.390625 59.46875 
L 2.15625 59.46875 
L 2.15625 71.578125 
L 59.03125 71.578125 
L 59.03125 59.46875 
L 37.84375 59.46875 
L 37.84375 0 
z
" id="Arial-BoldMT-84"/>
     </defs>
     <g style="fill:#262626;" transform="translate(49.654687 300.112125)scale(0.12 -0.12)">
      <use xlink:href="#Arial-BoldMT-84"/>
      <use x="53.708984" xlink:href="#Arial-BoldMT-111"/>
      <use x="114.792969" xlink:href="#Arial-BoldMT-116"/>
      <use x="148.09375" xlink:href="#Arial-BoldMT-97"/>
      <use x="203.708984" xlink:href="#Arial-BoldMT-108"/>
      <use x="231.492188" xlink:href="#Arial-BoldMT-32"/>
      <use x="259.275391" xlink:href="#Arial-BoldMT-43"/>
      <use x="317.673828" xlink:href="#Arial-BoldMT-32"/>
      <use x="345.457031" xlink:href="#Arial-BoldMT-73"/>
      <use x="373.240234" xlink:href="#Arial-BoldMT-109"/>
      <use x="462.15625" xlink:href="#Arial-BoldMT-112"/>
      <use x="523.240234" xlink:href="#Arial-BoldMT-111"/>
      <use x="584.324219" xlink:href="#Arial-BoldMT-114"/>
      <use x="623.240234" xlink:href="#Arial-BoldMT-116"/>
      <use x="656.541016" xlink:href="#Arial-BoldMT-115"/>
     </g>
    </g>
    <g id="patch_9">
     <path d="M 159.109688 300.112125 
L 183.109688 300.112125 
L 183.109688 291.712125 
L 159.109688 291.712125 
z
" style="fill:#486ead;opacity:0.9;"/>
    </g>
    <g id="text_24">
     <!-- Hydro -->
     <g style="fill:#262626;" transform="translate(192.709688 300.112125)scale(0.12 -0.12)">
      <use xlink:href="#Arial-BoldMT-72"/>
      <use x="72.216797" xlink:href="#Arial-BoldMT-121"/>
      <use x="127.832031" xlink:href="#Arial-BoldMT-100"/>
      <use x="188.916016" xlink:href="#Arial-BoldMT-114"/>
      <use x="227.832031" xlink:href="#Arial-BoldMT-111"/>
     </g>
    </g>
    <g id="patch_10">
     <path d="M 251.378438 300.112125 
L 275.378438 300.112125 
L 275.378438 291.712125 
L 251.378438 291.712125 
z
" style="fill:#ebc054;opacity:0.9;"/>
    </g>
    <g id="text_25">
     <!-- Other Renewables -->
     <defs>
      <path d="M 20.84375 71.578125 
L 20.84375 45.265625 
Q 27.484375 53.03125 36.71875 53.03125 
Q 41.453125 53.03125 45.265625 51.265625 
Q 49.078125 49.515625 51 46.78125 
Q 52.9375 44.046875 53.640625 40.71875 
Q 54.34375 37.40625 54.34375 30.421875 
L 54.34375 0 
L 40.625 0 
L 40.625 27.390625 
Q 40.625 35.546875 39.84375 37.734375 
Q 39.0625 39.9375 37.078125 41.234375 
Q 35.109375 42.53125 32.125 42.53125 
Q 28.71875 42.53125 26.03125 40.859375 
Q 23.34375 39.203125 22.09375 35.859375 
Q 20.84375 32.515625 20.84375 25.984375 
L 20.84375 0 
L 7.125 0 
L 7.125 71.578125 
z
" id="Arial-BoldMT-104"/>
     </defs>
     <g style="fill:#262626;" transform="translate(284.978438 300.112125)scale(0.12 -0.12)">
      <use xlink:href="#Arial-BoldMT-79"/>
      <use x="77.783203" xlink:href="#Arial-BoldMT-116"/>
      <use x="111.083984" xlink:href="#Arial-BoldMT-104"/>
      <use x="172.167969" xlink:href="#Arial-BoldMT-101"/>
      <use x="227.783203" xlink:href="#Arial-BoldMT-114"/>
      <use x="266.699219" xlink:href="#Arial-BoldMT-32"/>
      <use x="294.482422" xlink:href="#Arial-BoldMT-82"/>
      <use x="366.699219" xlink:href="#Arial-BoldMT-101"/>
      <use x="422.314453" xlink:href="#Arial-BoldMT-110"/>
      <use x="483.398438" xlink:href="#Arial-BoldMT-101"/>
      <use x="539.013672" xlink:href="#Arial-BoldMT-119"/>
      <use x="616.796875" xlink:href="#Arial-BoldMT-97"/>
      <use x="672.412109" xlink:href="#Arial-BoldMT-98"/>
      <use x="733.496094" xlink:href="#Arial-BoldMT-108"/>
      <use x="761.279297" xlink:href="#Arial-BoldMT-101"/>
      <use x="816.894531" xlink:href="#Arial-BoldMT-115"/>
     </g>
    </g>
    <g id="patch_11">
     <path d="M 413.672813 300.112125 
L 437.672813 300.112125 
L 437.672813 291.712125 
L 413.672813 291.712125 
z
" style="fill:#49ace2;opacity:0.9;"/>
    </g>
    <g id="text_26">
     <!-- Wind -->
     <defs>
      <path d="M 17.4375 0 
L 0.34375 71.578125 
L 15.140625 71.578125 
L 25.921875 22.40625 
L 39.015625 71.578125 
L 56.203125 71.578125 
L 68.75 21.578125 
L 79.734375 71.578125 
L 94.28125 71.578125 
L 76.90625 0 
L 61.578125 0 
L 47.3125 53.515625 
L 33.109375 0 
z
" id="Arial-BoldMT-87"/>
     </defs>
     <g style="fill:#262626;" transform="translate(447.272813 300.112125)scale(0.12 -0.12)">
      <use xlink:href="#Arial-BoldMT-87"/>
      <use x="93.509766" xlink:href="#Arial-BoldMT-105"/>
      <use x="121.292969" xlink:href="#Arial-BoldMT-110"/>
      <use x="182.376953" xlink:href="#Arial-BoldMT-100"/>
     </g>
    </g>
    <g id="patch_12">
     <path d="M 500.487188 300.112125 
L 524.487188 300.112125 
L 524.487188 291.712125 
L 500.487188 291.712125 
z
" style="fill:#a74038;opacity:0.9;"/>
    </g>
    <g id="text_27">
     <!-- Nuclear -->
     <g style="fill:#262626;" transform="translate(534.087188 300.112125)scale(0.12 -0.12)">
      <use xlink:href="#Arial-BoldMT-78"/>
      <use x="72.216797" xlink:href="#Arial-BoldMT-117"/>
      <use x="133.300781" xlink:href="#Arial-BoldMT-99"/>
      <use x="188.916016" xlink:href="#Arial-BoldMT-108"/>
      <use x="216.699219" xlink:href="#Arial-BoldMT-101"/>
      <use x="272.314453" xlink:href="#Arial-BoldMT-97"/>
      <use x="327.929688" xlink:href="#Arial-BoldMT-114"/>
     </g>
    </g>
   </g>
  </g>
 </g>
 <defs>
  <clipPath id="p1ce1617f41">
   <rect height="244.8" width="558" x="45.980625" y="23.68275"/>
  </clipPath>
 </defs>
</svg>
