<?xml version="1.0" encoding="utf-8" standalone="no"?>
<!DOCTYPE svg PUBLIC "-//W3C//DTD SVG 1.1//EN"
  "http://www.w3.org/Graphics/SVG/1.1/DTD/svg11.dtd">
<!-- Created with matplotlib (https://matplotlib.org/) -->
<svg height="348.55275pt" version="1.1" viewBox="0 0 615.3675 348.55275" width="615.3675pt" xmlns="http://www.w3.org/2000/svg" xmlns:xlink="http://www.w3.org/1999/xlink">
 <defs>
  <style type="text/css">
*{stroke-linecap:butt;stroke-linejoin:round;}
  </style>
 </defs>
 <g id="figure_1">
  <g id="patch_1">
   <path d="M 0 348.55275 
L 615.3675 348.55275 
L 615.3675 0 
L 0 0 
z
" style="fill:none;"/>
  </g>
  <g id="axes_1">
   <g id="patch_2">
    <path d="M 39.16125 268.48275 
L 597.16125 268.48275 
L 597.16125 23.68275 
L 39.16125 23.68275 
z
" style="fill:none;"/>
   </g>
   <g id="matplotlib.axis_1">
    <g id="xtick_1">
     <g id="line2d_1">
      <path clip-path="url(#p40b691b454)" d="M 39.16125 268.48275 
L 39.16125 23.68275 
" style="fill:none;stroke:#cccccc;stroke-linecap:round;stroke-width:0.8;"/>
     </g>
     <g id="line2d_2">
      <defs>
       <path d="M 0 0 
L 0 3 
" id="m9be026638e" style="stroke:#262626;stroke-width:0.8;"/>
      </defs>
      <g>
       <use style="fill:#262626;stroke:#262626;stroke-width:0.8;" x="39.16125" xlink:href="#m9be026638e" y="268.48275"/>
      </g>
     </g>
     <g id="text_1">
      <!-- Jan -->
      <defs>
       <path d="M 33.109375 71.578125 
L 47.515625 71.578125 
L 47.515625 26.265625 
Q 47.515625 17.390625 45.953125 12.59375 
Q 43.84375 6.34375 38.328125 2.5625 
Q 32.8125 -1.21875 23.78125 -1.21875 
Q 13.1875 -1.21875 7.46875 4.703125 
Q 1.765625 10.640625 1.703125 22.125 
L 15.328125 23.6875 
Q 15.578125 17.53125 17.140625 14.984375 
Q 19.484375 11.140625 24.265625 11.140625 
Q 29.109375 11.140625 31.109375 13.890625 
Q 33.109375 16.65625 33.109375 25.34375 
z
" id="Arial-BoldMT-74"/>
       <path d="M 17.4375 36.03125 
L 4.984375 38.28125 
Q 7.078125 45.796875 12.203125 49.40625 
Q 17.328125 53.03125 27.4375 53.03125 
Q 36.625 53.03125 41.109375 50.859375 
Q 45.609375 48.6875 47.4375 45.34375 
Q 49.265625 42 49.265625 33.0625 
L 49.125 17.046875 
Q 49.125 10.203125 49.78125 6.953125 
Q 50.4375 3.71875 52.25 0 
L 38.671875 0 
Q 38.140625 1.375 37.359375 4.046875 
Q 37.015625 5.28125 36.859375 5.671875 
Q 33.34375 2.25 29.34375 0.53125 
Q 25.34375 -1.171875 20.796875 -1.171875 
Q 12.796875 -1.171875 8.171875 3.171875 
Q 3.5625 7.515625 3.5625 14.15625 
Q 3.5625 18.5625 5.65625 22 
Q 7.765625 25.4375 11.546875 27.265625 
Q 15.328125 29.109375 22.46875 30.46875 
Q 32.078125 32.28125 35.796875 33.84375 
L 35.796875 35.203125 
Q 35.796875 39.15625 33.84375 40.84375 
Q 31.890625 42.53125 26.46875 42.53125 
Q 22.796875 42.53125 20.75 41.09375 
Q 18.703125 39.65625 17.4375 36.03125 
z
M 35.796875 24.90625 
Q 33.15625 24.03125 27.4375 22.796875 
Q 21.734375 21.578125 19.96875 20.40625 
Q 17.28125 18.5 17.28125 15.578125 
Q 17.28125 12.703125 19.421875 10.59375 
Q 21.578125 8.5 24.90625 8.5 
Q 28.609375 8.5 31.984375 10.9375 
Q 34.46875 12.796875 35.25 15.484375 
Q 35.796875 17.234375 35.796875 22.171875 
z
" id="Arial-BoldMT-97"/>
       <path d="M 54.34375 0 
L 40.625 0 
L 40.625 26.46875 
Q 40.625 34.859375 39.75 37.328125 
Q 38.875 39.796875 36.890625 41.15625 
Q 34.90625 42.53125 32.125 42.53125 
Q 28.5625 42.53125 25.734375 40.578125 
Q 22.90625 38.625 21.84375 35.390625 
Q 20.796875 32.171875 20.796875 23.484375 
L 20.796875 0 
L 7.078125 0 
L 7.078125 51.859375 
L 19.828125 51.859375 
L 19.828125 44.234375 
Q 26.609375 53.03125 36.921875 53.03125 
Q 41.453125 53.03125 45.203125 51.390625 
Q 48.96875 49.75 50.890625 47.203125 
Q 52.828125 44.671875 53.578125 41.453125 
Q 54.34375 38.234375 54.34375 32.234375 
z
" id="Arial-BoldMT-110"/>
      </defs>
      <g style="fill:#262626;" transform="translate(28.823437 280.572125)scale(0.12 -0.12)">
       <use xlink:href="#Arial-BoldMT-74"/>
       <use x="55.615234" xlink:href="#Arial-BoldMT-97"/>
       <use x="111.230469" xlink:href="#Arial-BoldMT-110"/>
      </g>
     </g>
    </g>
    <g id="xtick_2">
     <g id="line2d_3">
      <path clip-path="url(#p40b691b454)" d="M 90.951669 268.48275 
L 90.951669 23.68275 
" style="fill:none;stroke:#cccccc;stroke-linecap:round;stroke-width:0.8;"/>
     </g>
     <g id="line2d_4">
      <g>
       <use style="fill:#262626;stroke:#262626;stroke-width:0.8;" x="90.951669" xlink:href="#m9be026638e" y="268.48275"/>
      </g>
     </g>
     <g id="text_2">
      <!-- Feb -->
      <defs>
       <path d="M 7.375 0 
L 7.375 71.578125 
L 56.453125 71.578125 
L 56.453125 59.46875 
L 21.828125 59.46875 
L 21.828125 42.53125 
L 51.703125 42.53125 
L 51.703125 30.421875 
L 21.828125 30.421875 
L 21.828125 0 
z
" id="Arial-BoldMT-70"/>
       <path d="M 37.203125 16.5 
L 50.875 14.203125 
Q 48.25 6.6875 42.546875 2.75 
Q 36.859375 -1.171875 28.328125 -1.171875 
Q 14.796875 -1.171875 8.296875 7.671875 
Q 3.171875 14.75 3.171875 25.53125 
Q 3.171875 38.421875 9.90625 45.71875 
Q 16.65625 53.03125 26.953125 53.03125 
Q 38.53125 53.03125 45.21875 45.390625 
Q 51.90625 37.75 51.609375 21.96875 
L 17.234375 21.96875 
Q 17.390625 15.875 20.5625 12.46875 
Q 23.734375 9.078125 28.46875 9.078125 
Q 31.6875 9.078125 33.875 10.828125 
Q 36.078125 12.59375 37.203125 16.5 
z
M 37.984375 30.375 
Q 37.84375 36.328125 34.90625 39.421875 
Q 31.984375 42.53125 27.78125 42.53125 
Q 23.296875 42.53125 20.359375 39.265625 
Q 17.4375 35.984375 17.484375 30.375 
z
" id="Arial-BoldMT-101"/>
       <path d="M 6.59375 0 
L 6.59375 71.578125 
L 20.3125 71.578125 
L 20.3125 45.796875 
Q 26.65625 53.03125 35.359375 53.03125 
Q 44.828125 53.03125 51.03125 46.171875 
Q 57.234375 39.3125 57.234375 26.46875 
Q 57.234375 13.1875 50.90625 6 
Q 44.578125 -1.171875 35.546875 -1.171875 
Q 31.109375 -1.171875 26.78125 1.046875 
Q 22.46875 3.265625 19.34375 7.625 
L 19.34375 0 
z
M 20.21875 27.046875 
Q 20.21875 19 22.75 15.140625 
Q 26.3125 9.671875 32.234375 9.671875 
Q 36.765625 9.671875 39.96875 13.546875 
Q 43.171875 17.4375 43.171875 25.78125 
Q 43.171875 34.671875 39.9375 38.59375 
Q 36.71875 42.53125 31.6875 42.53125 
Q 26.765625 42.53125 23.484375 38.6875 
Q 20.21875 34.859375 20.21875 27.046875 
z
" id="Arial-BoldMT-98"/>
      </defs>
      <g style="fill:#262626;" transform="translate(80.285732 280.572125)scale(0.12 -0.12)">
       <use xlink:href="#Arial-BoldMT-70"/>
       <use x="61.083984" xlink:href="#Arial-BoldMT-101"/>
       <use x="116.699219" xlink:href="#Arial-BoldMT-98"/>
      </g>
     </g>
    </g>
    <g id="xtick_3">
     <g id="line2d_5">
      <path clip-path="url(#p40b691b454)" d="M 137.730112 268.48275 
L 137.730112 23.68275 
" style="fill:none;stroke:#cccccc;stroke-linecap:round;stroke-width:0.8;"/>
     </g>
     <g id="line2d_6">
      <g>
       <use style="fill:#262626;stroke:#262626;stroke-width:0.8;" x="137.730112" xlink:href="#m9be026638e" y="268.48275"/>
      </g>
     </g>
     <g id="text_3">
      <!-- Mar -->
      <defs>
       <path d="M 7.078125 0 
L 7.078125 71.578125 
L 28.71875 71.578125 
L 41.703125 22.75 
L 54.546875 71.578125 
L 76.21875 71.578125 
L 76.21875 0 
L 62.796875 0 
L 62.796875 56.34375 
L 48.578125 0 
L 34.671875 0 
L 20.515625 56.34375 
L 20.515625 0 
z
" id="Arial-BoldMT-77"/>
       <path d="M 20.3125 0 
L 6.59375 0 
L 6.59375 51.859375 
L 19.34375 51.859375 
L 19.34375 44.484375 
Q 22.609375 49.703125 25.21875 51.359375 
Q 27.828125 53.03125 31.15625 53.03125 
Q 35.84375 53.03125 40.1875 50.4375 
L 35.9375 38.484375 
Q 32.46875 40.71875 29.5 40.71875 
Q 26.609375 40.71875 24.609375 39.125 
Q 22.609375 37.546875 21.453125 33.390625 
Q 20.3125 29.25 20.3125 16.015625 
z
" id="Arial-BoldMT-114"/>
      </defs>
      <g style="fill:#262626;" transform="translate(127.060425 280.572125)scale(0.12 -0.12)">
       <use xlink:href="#Arial-BoldMT-77"/>
       <use x="83.300781" xlink:href="#Arial-BoldMT-97"/>
       <use x="138.916016" xlink:href="#Arial-BoldMT-114"/>
      </g>
     </g>
    </g>
    <g id="xtick_4">
     <g id="line2d_7">
      <path clip-path="url(#p40b691b454)" d="M 189.450921 268.48275 
L 189.450921 23.68275 
" style="fill:none;stroke:#cccccc;stroke-linecap:round;stroke-width:0.8;"/>
     </g>
     <g id="line2d_8">
      <g>
       <use style="fill:#262626;stroke:#262626;stroke-width:0.8;" x="189.450921" xlink:href="#m9be026638e" y="268.48275"/>
      </g>
     </g>
     <g id="text_4">
      <!-- Apr -->
      <defs>
       <path d="M 71.828125 0 
L 56.109375 0 
L 49.859375 16.265625 
L 21.234375 16.265625 
L 15.328125 0 
L 0 0 
L 27.875 71.578125 
L 43.171875 71.578125 
z
M 45.21875 28.328125 
L 35.359375 54.890625 
L 25.6875 28.328125 
z
" id="Arial-BoldMT-65"/>
       <path d="M 6.78125 51.859375 
L 19.578125 51.859375 
L 19.578125 44.234375 
Q 22.078125 48.140625 26.3125 50.578125 
Q 30.5625 53.03125 35.75 53.03125 
Q 44.78125 53.03125 51.078125 45.953125 
Q 57.375 38.875 57.375 26.21875 
Q 57.375 13.234375 51.015625 6.03125 
Q 44.671875 -1.171875 35.640625 -1.171875 
Q 31.34375 -1.171875 27.84375 0.53125 
Q 24.359375 2.25 20.515625 6.390625 
L 20.515625 -19.734375 
L 6.78125 -19.734375 
z
M 20.359375 26.8125 
Q 20.359375 18.0625 23.828125 13.890625 
Q 27.296875 9.71875 32.28125 9.71875 
Q 37.0625 9.71875 40.234375 13.546875 
Q 43.40625 17.390625 43.40625 26.125 
Q 43.40625 34.28125 40.125 38.234375 
Q 36.859375 42.1875 32.03125 42.1875 
Q 27 42.1875 23.671875 38.296875 
Q 20.359375 34.421875 20.359375 26.8125 
z
" id="Arial-BoldMT-112"/>
      </defs>
      <g style="fill:#262626;" transform="translate(179.117796 280.572125)scale(0.12 -0.12)">
       <use xlink:href="#Arial-BoldMT-65"/>
       <use x="72.216797" xlink:href="#Arial-BoldMT-112"/>
       <use x="133.300781" xlink:href="#Arial-BoldMT-114"/>
      </g>
     </g>
    </g>
    <g id="xtick_5">
     <g id="line2d_9">
      <path clip-path="url(#p40b691b454)" d="M 239.570681 268.48275 
L 239.570681 23.68275 
" style="fill:none;stroke:#cccccc;stroke-linecap:round;stroke-width:0.8;"/>
     </g>
     <g id="line2d_10">
      <g>
       <use style="fill:#262626;stroke:#262626;stroke-width:0.8;" x="239.570681" xlink:href="#m9be026638e" y="268.48275"/>
      </g>
     </g>
     <g id="text_5">
      <!-- May -->
      <defs>
       <path d="M 0.6875 51.859375 
L 15.28125 51.859375 
L 27.6875 15.046875 
L 39.796875 51.859375 
L 54 51.859375 
L 35.6875 1.953125 
L 32.421875 -7.078125 
Q 30.609375 -11.625 28.96875 -14.015625 
Q 27.34375 -16.40625 25.21875 -17.890625 
Q 23.09375 -19.390625 19.984375 -20.21875 
Q 16.890625 -21.046875 12.984375 -21.046875 
Q 9.03125 -21.046875 5.21875 -20.21875 
L 4 -9.46875 
Q 7.234375 -10.109375 9.8125 -10.109375 
Q 14.59375 -10.109375 16.890625 -7.296875 
Q 19.1875 -4.5 20.40625 -0.140625 
z
" id="Arial-BoldMT-121"/>
      </defs>
      <g style="fill:#262626;" transform="translate(227.899744 280.572125)scale(0.12 -0.12)">
       <use xlink:href="#Arial-BoldMT-77"/>
       <use x="83.300781" xlink:href="#Arial-BoldMT-97"/>
       <use x="138.916016" xlink:href="#Arial-BoldMT-121"/>
      </g>
     </g>
    </g>
    <g id="xtick_6">
     <g id="line2d_11">
      <path clip-path="url(#p40b691b454)" d="M 291.3611 268.48275 
L 291.3611 23.68275 
" style="fill:none;stroke:#cccccc;stroke-linecap:round;stroke-width:0.8;"/>
     </g>
     <g id="line2d_12">
      <g>
       <use style="fill:#262626;stroke:#262626;stroke-width:0.8;" x="291.3611" xlink:href="#m9be026638e" y="268.48275"/>
      </g>
     </g>
     <g id="text_6">
      <!-- Jun -->
      <defs>
       <path d="M 41.3125 0 
L 41.3125 7.765625 
Q 38.484375 3.609375 33.859375 1.21875 
Q 29.25 -1.171875 24.125 -1.171875 
Q 18.890625 -1.171875 14.734375 1.125 
Q 10.59375 3.421875 8.734375 7.5625 
Q 6.890625 11.71875 6.890625 19.046875 
L 6.890625 51.859375 
L 20.609375 51.859375 
L 20.609375 28.03125 
Q 20.609375 17.09375 21.359375 14.625 
Q 22.125 12.15625 24.125 10.71875 
Q 26.125 9.28125 29.203125 9.28125 
Q 32.71875 9.28125 35.5 11.203125 
Q 38.28125 13.140625 39.296875 15.984375 
Q 40.328125 18.84375 40.328125 29.984375 
L 40.328125 51.859375 
L 54.046875 51.859375 
L 54.046875 0 
z
" id="Arial-BoldMT-117"/>
      </defs>
      <g style="fill:#262626;" transform="translate(280.695163 280.572125)scale(0.12 -0.12)">
       <use xlink:href="#Arial-BoldMT-74"/>
       <use x="55.615234" xlink:href="#Arial-BoldMT-117"/>
       <use x="116.699219" xlink:href="#Arial-BoldMT-110"/>
      </g>
     </g>
    </g>
    <g id="xtick_7">
     <g id="line2d_13">
      <path clip-path="url(#p40b691b454)" d="M 341.480861 268.48275 
L 341.480861 23.68275 
" style="fill:none;stroke:#cccccc;stroke-linecap:round;stroke-width:0.8;"/>
     </g>
     <g id="line2d_14">
      <g>
       <use style="fill:#262626;stroke:#262626;stroke-width:0.8;" x="341.480861" xlink:href="#m9be026638e" y="268.48275"/>
      </g>
     </g>
     <g id="text_7">
      <!-- Jul -->
      <defs>
       <path d="M 7.171875 0 
L 7.171875 71.578125 
L 20.90625 71.578125 
L 20.90625 0 
z
" id="Arial-BoldMT-108"/>
      </defs>
      <g style="fill:#262626;" transform="translate(332.812736 280.572125)scale(0.12 -0.12)">
       <use xlink:href="#Arial-BoldMT-74"/>
       <use x="55.615234" xlink:href="#Arial-BoldMT-117"/>
       <use x="116.699219" xlink:href="#Arial-BoldMT-108"/>
      </g>
     </g>
    </g>
    <g id="xtick_8">
     <g id="line2d_15">
      <path clip-path="url(#p40b691b454)" d="M 393.27128 268.48275 
L 393.27128 23.68275 
" style="fill:none;stroke:#cccccc;stroke-linecap:round;stroke-width:0.8;"/>
     </g>
     <g id="line2d_16">
      <g>
       <use style="fill:#262626;stroke:#262626;stroke-width:0.8;" x="393.27128" xlink:href="#m9be026638e" y="268.48275"/>
      </g>
     </g>
     <g id="text_8">
      <!-- Aug -->
      <defs>
       <path d="M 5.90625 -3.421875 
L 21.578125 -5.328125 
Q 21.96875 -8.0625 23.390625 -9.078125 
Q 25.34375 -10.546875 29.546875 -10.546875 
Q 34.90625 -10.546875 37.59375 -8.9375 
Q 39.40625 -7.859375 40.328125 -5.46875 
Q 40.96875 -3.765625 40.96875 0.828125 
L 40.96875 8.40625 
Q 34.8125 0 25.4375 0 
Q 14.984375 0 8.890625 8.84375 
Q 4.109375 15.828125 4.109375 26.21875 
Q 4.109375 39.265625 10.375 46.140625 
Q 16.65625 53.03125 25.984375 53.03125 
Q 35.59375 53.03125 41.84375 44.578125 
L 41.84375 51.859375 
L 54.6875 51.859375 
L 54.6875 5.328125 
Q 54.6875 -3.859375 53.171875 -8.390625 
Q 51.65625 -12.9375 48.921875 -15.515625 
Q 46.1875 -18.109375 41.625 -19.578125 
Q 37.0625 -21.046875 30.078125 -21.046875 
Q 16.890625 -21.046875 11.375 -16.53125 
Q 5.859375 -12.015625 5.859375 -5.078125 
Q 5.859375 -4.390625 5.90625 -3.421875 
z
M 18.171875 27 
Q 18.171875 18.75 21.359375 14.90625 
Q 24.5625 11.078125 29.25 11.078125 
Q 34.28125 11.078125 37.75 15.015625 
Q 41.21875 18.953125 41.21875 26.65625 
Q 41.21875 34.71875 37.890625 38.625 
Q 34.578125 42.53125 29.5 42.53125 
Q 24.5625 42.53125 21.359375 38.6875 
Q 18.171875 34.859375 18.171875 27 
z
" id="Arial-BoldMT-103"/>
      </defs>
      <g style="fill:#262626;" transform="translate(381.60878 280.572125)scale(0.12 -0.12)">
       <use xlink:href="#Arial-BoldMT-65"/>
       <use x="72.216797" xlink:href="#Arial-BoldMT-117"/>
       <use x="133.300781" xlink:href="#Arial-BoldMT-103"/>
      </g>
     </g>
    </g>
    <g id="xtick_9">
     <g id="line2d_17">
      <path clip-path="url(#p40b691b454)" d="M 445.061699 268.48275 
L 445.061699 23.68275 
" style="fill:none;stroke:#cccccc;stroke-linecap:round;stroke-width:0.8;"/>
     </g>
     <g id="line2d_18">
      <g>
       <use style="fill:#262626;stroke:#262626;stroke-width:0.8;" x="445.061699" xlink:href="#m9be026638e" y="268.48275"/>
      </g>
     </g>
     <g id="text_9">
      <!-- Sep -->
      <defs>
       <path d="M 3.609375 23.296875 
L 17.671875 24.65625 
Q 18.953125 17.578125 22.828125 14.25 
Q 26.703125 10.9375 33.296875 10.9375 
Q 40.28125 10.9375 43.8125 13.890625 
Q 47.359375 16.84375 47.359375 20.796875 
Q 47.359375 23.34375 45.875 25.125 
Q 44.390625 26.90625 40.671875 28.21875 
Q 38.140625 29.109375 29.109375 31.34375 
Q 17.484375 34.234375 12.796875 38.421875 
Q 6.203125 44.34375 6.203125 52.828125 
Q 6.203125 58.296875 9.296875 63.0625 
Q 12.40625 67.828125 18.234375 70.3125 
Q 24.078125 72.796875 32.328125 72.796875 
Q 45.796875 72.796875 52.609375 66.890625 
Q 59.421875 60.984375 59.765625 51.125 
L 45.3125 50.484375 
Q 44.390625 56 41.328125 58.421875 
Q 38.28125 60.84375 32.171875 60.84375 
Q 25.875 60.84375 22.3125 58.25 
Q 20.015625 56.59375 20.015625 53.8125 
Q 20.015625 51.265625 22.171875 49.46875 
Q 24.90625 47.171875 35.453125 44.671875 
Q 46 42.1875 51.046875 39.515625 
Q 56.109375 36.859375 58.953125 32.25 
Q 61.8125 27.640625 61.8125 20.84375 
Q 61.8125 14.703125 58.390625 9.328125 
Q 54.984375 3.953125 48.734375 1.34375 
Q 42.484375 -1.265625 33.15625 -1.265625 
Q 19.578125 -1.265625 12.296875 5 
Q 5.03125 11.28125 3.609375 23.296875 
z
" id="Arial-BoldMT-83"/>
      </defs>
      <g style="fill:#262626;" transform="translate(434.058262 280.718375)scale(0.12 -0.12)">
       <use xlink:href="#Arial-BoldMT-83"/>
       <use x="66.699219" xlink:href="#Arial-BoldMT-101"/>
       <use x="122.314453" xlink:href="#Arial-BoldMT-112"/>
      </g>
     </g>
    </g>
    <g id="xtick_10">
     <g id="line2d_19">
      <path clip-path="url(#p40b691b454)" d="M 495.18146 268.48275 
L 495.18146 23.68275 
" style="fill:none;stroke:#cccccc;stroke-linecap:round;stroke-width:0.8;"/>
     </g>
     <g id="line2d_20">
      <g>
       <use style="fill:#262626;stroke:#262626;stroke-width:0.8;" x="495.18146" xlink:href="#m9be026638e" y="268.48275"/>
      </g>
     </g>
     <g id="text_10">
      <!-- Oct -->
      <defs>
       <path d="M 4.34375 35.359375 
Q 4.34375 46.296875 7.625 53.71875 
Q 10.0625 59.1875 14.28125 63.53125 
Q 18.5 67.875 23.53125 69.96875 
Q 30.21875 72.796875 38.96875 72.796875 
Q 54.78125 72.796875 64.28125 62.984375 
Q 73.78125 53.171875 73.78125 35.6875 
Q 73.78125 18.359375 64.359375 8.5625 
Q 54.9375 -1.21875 39.15625 -1.21875 
Q 23.1875 -1.21875 13.765625 8.515625 
Q 4.34375 18.265625 4.34375 35.359375 
z
M 19.234375 35.84375 
Q 19.234375 23.6875 24.84375 17.40625 
Q 30.46875 11.140625 39.109375 11.140625 
Q 47.75 11.140625 53.296875 17.359375 
Q 58.84375 23.578125 58.84375 36.03125 
Q 58.84375 48.34375 53.4375 54.390625 
Q 48.046875 60.453125 39.109375 60.453125 
Q 30.171875 60.453125 24.703125 54.3125 
Q 19.234375 48.1875 19.234375 35.84375 
z
" id="Arial-BoldMT-79"/>
       <path d="M 52.390625 36.53125 
L 38.875 34.078125 
Q 38.1875 38.140625 35.765625 40.1875 
Q 33.34375 42.234375 29.5 42.234375 
Q 24.359375 42.234375 21.3125 38.6875 
Q 18.265625 35.15625 18.265625 26.859375 
Q 18.265625 17.625 21.359375 13.8125 
Q 24.46875 10.015625 29.6875 10.015625 
Q 33.59375 10.015625 36.078125 12.234375 
Q 38.578125 14.453125 39.59375 19.875 
L 53.078125 17.578125 
Q 50.984375 8.296875 45.015625 3.5625 
Q 39.0625 -1.171875 29.046875 -1.171875 
Q 17.671875 -1.171875 10.90625 6 
Q 4.15625 13.1875 4.15625 25.875 
Q 4.15625 38.71875 10.9375 45.875 
Q 17.71875 53.03125 29.296875 53.03125 
Q 38.765625 53.03125 44.359375 48.953125 
Q 49.953125 44.875 52.390625 36.53125 
z
" id="Arial-BoldMT-99"/>
       <path d="M 30.953125 51.859375 
L 30.953125 40.921875 
L 21.578125 40.921875 
L 21.578125 20.015625 
Q 21.578125 13.671875 21.84375 12.625 
Q 22.125 11.578125 23.078125 10.890625 
Q 24.03125 10.203125 25.390625 10.203125 
Q 27.296875 10.203125 30.90625 11.53125 
L 32.078125 0.875 
Q 27.296875 -1.171875 21.234375 -1.171875 
Q 17.53125 -1.171875 14.546875 0.0625 
Q 11.578125 1.3125 10.1875 3.296875 
Q 8.796875 5.28125 8.25 8.640625 
Q 7.8125 11.03125 7.8125 18.3125 
L 7.8125 40.921875 
L 1.515625 40.921875 
L 1.515625 51.859375 
L 7.8125 51.859375 
L 7.8125 62.15625 
L 21.578125 70.171875 
L 21.578125 51.859375 
z
" id="Arial-BoldMT-116"/>
      </defs>
      <g style="fill:#262626;" transform="translate(485.18021 280.572125)scale(0.12 -0.12)">
       <use xlink:href="#Arial-BoldMT-79"/>
       <use x="77.783203" xlink:href="#Arial-BoldMT-99"/>
       <use x="133.398438" xlink:href="#Arial-BoldMT-116"/>
      </g>
     </g>
    </g>
    <g id="xtick_11">
     <g id="line2d_21">
      <path clip-path="url(#p40b691b454)" d="M 546.971879 268.48275 
L 546.971879 23.68275 
" style="fill:none;stroke:#cccccc;stroke-linecap:round;stroke-width:0.8;"/>
     </g>
     <g id="line2d_22">
      <g>
       <use style="fill:#262626;stroke:#262626;stroke-width:0.8;" x="546.971879" xlink:href="#m9be026638e" y="268.48275"/>
      </g>
     </g>
     <g id="text_11">
      <!-- Nov -->
      <defs>
       <path d="M 7.421875 0 
L 7.421875 71.578125 
L 21.484375 71.578125 
L 50.78125 23.78125 
L 50.78125 71.578125 
L 64.203125 71.578125 
L 64.203125 0 
L 49.703125 0 
L 20.84375 46.6875 
L 20.84375 0 
z
" id="Arial-BoldMT-78"/>
       <path d="M 4 26.65625 
Q 4 33.5 7.375 39.890625 
Q 10.75 46.296875 16.921875 49.65625 
Q 23.09375 53.03125 30.71875 53.03125 
Q 42.484375 53.03125 50 45.390625 
Q 57.515625 37.75 57.515625 26.078125 
Q 57.515625 14.3125 49.921875 6.5625 
Q 42.328125 -1.171875 30.8125 -1.171875 
Q 23.6875 -1.171875 17.21875 2.046875 
Q 10.75 5.28125 7.375 11.5 
Q 4 17.71875 4 26.65625 
z
M 18.0625 25.921875 
Q 18.0625 18.21875 21.71875 14.109375 
Q 25.390625 10.015625 30.765625 10.015625 
Q 36.140625 10.015625 39.765625 14.109375 
Q 43.40625 18.21875 43.40625 26.03125 
Q 43.40625 33.640625 39.765625 37.734375 
Q 36.140625 41.84375 30.765625 41.84375 
Q 25.390625 41.84375 21.71875 37.734375 
Q 18.0625 33.640625 18.0625 25.921875 
z
" id="Arial-BoldMT-111"/>
       <path d="M 21.4375 0 
L 0.53125 51.859375 
L 14.9375 51.859375 
L 24.703125 25.390625 
L 27.546875 16.546875 
Q 28.65625 19.921875 28.953125 21 
Q 29.640625 23.1875 30.421875 25.390625 
L 40.28125 51.859375 
L 54.390625 51.859375 
L 33.796875 0 
z
" id="Arial-BoldMT-118"/>
      </defs>
      <g style="fill:#262626;" transform="translate(535.637504 280.572125)scale(0.12 -0.12)">
       <use xlink:href="#Arial-BoldMT-78"/>
       <use x="72.216797" xlink:href="#Arial-BoldMT-111"/>
       <use x="133.300781" xlink:href="#Arial-BoldMT-118"/>
      </g>
     </g>
    </g>
    <g id="xtick_12">
     <g id="line2d_23">
      <path clip-path="url(#p40b691b454)" d="M 597.16125 268.48275 
L 597.16125 23.68275 
" style="fill:none;stroke:#cccccc;stroke-linecap:round;stroke-width:0.8;"/>
     </g>
     <g id="line2d_24">
      <g>
       <use style="fill:#262626;stroke:#262626;stroke-width:0.8;" x="597.16125" xlink:href="#m9be026638e" y="268.48275"/>
      </g>
     </g>
     <g id="text_12">
      <!-- Dec -->
      <defs>
       <path d="M 7.234375 71.578125 
L 33.640625 71.578125 
Q 42.578125 71.578125 47.265625 70.21875 
Q 53.5625 68.359375 58.046875 63.625 
Q 62.546875 58.890625 64.890625 52.03125 
Q 67.234375 45.171875 67.234375 35.109375 
Q 67.234375 26.265625 65.046875 19.875 
Q 62.359375 12.0625 57.375 7.234375 
Q 53.609375 3.5625 47.21875 1.515625 
Q 42.4375 0 34.421875 0 
L 7.234375 0 
z
M 21.6875 59.46875 
L 21.6875 12.0625 
L 32.46875 12.0625 
Q 38.53125 12.0625 41.21875 12.75 
Q 44.734375 13.625 47.046875 15.71875 
Q 49.359375 17.828125 50.828125 22.625 
Q 52.296875 27.4375 52.296875 35.75 
Q 52.296875 44.046875 50.828125 48.484375 
Q 49.359375 52.9375 46.71875 55.421875 
Q 44.09375 57.90625 40.046875 58.796875 
Q 37.015625 59.46875 28.171875 59.46875 
z
" id="Arial-BoldMT-68"/>
      </defs>
      <g style="fill:#262626;" transform="translate(586.155 280.572125)scale(0.12 -0.12)">
       <use xlink:href="#Arial-BoldMT-68"/>
       <use x="72.216797" xlink:href="#Arial-BoldMT-101"/>
       <use x="127.832031" xlink:href="#Arial-BoldMT-99"/>
      </g>
     </g>
    </g>
   </g>
   <g id="matplotlib.axis_2">
    <g id="ytick_1">
     <g id="line2d_25">
      <path clip-path="url(#p40b691b454)" d="M 39.16125 268.48275 
L 597.16125 268.48275 
" style="fill:none;stroke:#cccccc;stroke-linecap:round;stroke-width:0.8;"/>
     </g>
     <g id="line2d_26">
      <defs>
       <path d="M 0 0 
L -3 0 
" id="m3dadc11756" style="stroke:#262626;stroke-width:0.8;"/>
      </defs>
      <g>
       <use style="fill:#262626;stroke:#262626;stroke-width:0.8;" x="39.16125" xlink:href="#m3dadc11756" y="268.48275"/>
      </g>
     </g>
     <g id="text_13">
      <!-- 0 -->
      <defs>
       <path d="M 27.4375 71.875 
Q 37.84375 71.875 43.703125 64.453125 
Q 50.6875 55.671875 50.6875 35.296875 
Q 50.6875 14.984375 43.65625 6.109375 
Q 37.84375 -1.21875 27.4375 -1.21875 
Q 17 -1.21875 10.59375 6.8125 
Q 4.203125 14.84375 4.203125 35.453125 
Q 4.203125 55.671875 11.234375 64.546875 
Q 17.046875 71.875 27.4375 71.875 
z
M 27.4375 60.5 
Q 24.953125 60.5 23 58.90625 
Q 21.046875 57.328125 19.96875 53.21875 
Q 18.5625 47.90625 18.5625 35.296875 
Q 18.5625 22.703125 19.828125 17.984375 
Q 21.09375 13.28125 23.015625 11.71875 
Q 24.953125 10.15625 27.4375 10.15625 
Q 29.9375 10.15625 31.890625 11.734375 
Q 33.84375 13.328125 34.90625 17.4375 
Q 36.328125 22.703125 36.328125 35.296875 
Q 36.328125 47.90625 35.0625 52.609375 
Q 33.796875 57.328125 31.859375 58.90625 
Q 29.9375 60.5 27.4375 60.5 
z
" id="Arial-BoldMT-48"/>
      </defs>
      <g style="fill:#262626;" transform="translate(28.988125 272.777437)scale(0.12 -0.12)">
       <use xlink:href="#Arial-BoldMT-48"/>
      </g>
     </g>
    </g>
    <g id="ytick_2">
     <g id="line2d_27">
      <path clip-path="url(#p40b691b454)" d="M 39.16125 240.667813 
L 597.16125 240.667813 
" style="fill:none;stroke:#cccccc;stroke-linecap:round;stroke-width:0.8;"/>
     </g>
     <g id="line2d_28">
      <g>
       <use style="fill:#262626;stroke:#262626;stroke-width:0.8;" x="39.16125" xlink:href="#m3dadc11756" y="240.667813"/>
      </g>
     </g>
     <g id="text_14">
      <!-- 2 -->
      <defs>
       <path d="M 50.59375 12.75 
L 50.59375 0 
L 2.484375 0 
Q 3.265625 7.234375 7.171875 13.703125 
Q 11.078125 20.171875 22.609375 30.859375 
Q 31.890625 39.5 33.984375 42.578125 
Q 36.8125 46.828125 36.8125 50.984375 
Q 36.8125 55.5625 34.34375 58.03125 
Q 31.890625 60.5 27.546875 60.5 
Q 23.25 60.5 20.703125 57.90625 
Q 18.171875 55.328125 17.78125 49.3125 
L 4.109375 50.6875 
Q 5.328125 62.015625 11.765625 66.9375 
Q 18.21875 71.875 27.875 71.875 
Q 38.484375 71.875 44.53125 66.15625 
Q 50.59375 60.453125 50.59375 51.953125 
Q 50.59375 47.125 48.859375 42.75 
Q 47.125 38.375 43.359375 33.59375 
Q 40.875 30.421875 34.375 24.453125 
Q 27.875 18.5 26.140625 16.546875 
Q 24.421875 14.59375 23.34375 12.75 
z
" id="Arial-BoldMT-50"/>
      </defs>
      <g style="fill:#262626;" transform="translate(28.988125 244.962501)scale(0.12 -0.12)">
       <use xlink:href="#Arial-BoldMT-50"/>
      </g>
     </g>
    </g>
    <g id="ytick_3">
     <g id="line2d_29">
      <path clip-path="url(#p40b691b454)" d="M 39.16125 212.852876 
L 597.16125 212.852876 
" style="fill:none;stroke:#cccccc;stroke-linecap:round;stroke-width:0.8;"/>
     </g>
     <g id="line2d_30">
      <g>
       <use style="fill:#262626;stroke:#262626;stroke-width:0.8;" x="39.16125" xlink:href="#m3dadc11756" y="212.852876"/>
      </g>
     </g>
     <g id="text_15">
      <!-- 4 -->
      <defs>
       <path d="M 31.15625 0 
L 31.15625 14.40625 
L 1.859375 14.40625 
L 1.859375 26.421875 
L 32.90625 71.875 
L 44.4375 71.875 
L 44.4375 26.46875 
L 53.328125 26.46875 
L 53.328125 14.40625 
L 44.4375 14.40625 
L 44.4375 0 
z
M 31.15625 26.46875 
L 31.15625 50.921875 
L 14.703125 26.46875 
z
" id="Arial-BoldMT-52"/>
      </defs>
      <g style="fill:#262626;" transform="translate(28.988125 217.147564)scale(0.12 -0.12)">
       <use xlink:href="#Arial-BoldMT-52"/>
      </g>
     </g>
    </g>
    <g id="ytick_4">
     <g id="line2d_31">
      <path clip-path="url(#p40b691b454)" d="M 39.16125 185.037939 
L 597.16125 185.037939 
" style="fill:none;stroke:#cccccc;stroke-linecap:round;stroke-width:0.8;"/>
     </g>
     <g id="line2d_32">
      <g>
       <use style="fill:#262626;stroke:#262626;stroke-width:0.8;" x="39.16125" xlink:href="#m3dadc11756" y="185.037939"/>
      </g>
     </g>
     <g id="text_16">
      <!-- 6 -->
      <defs>
       <path d="M 50.734375 54.046875 
L 37.453125 52.59375 
Q 36.96875 56.6875 34.90625 58.640625 
Q 32.859375 60.59375 29.59375 60.59375 
Q 25.25 60.59375 22.234375 56.6875 
Q 19.234375 52.78125 18.453125 40.4375 
Q 23.578125 46.484375 31.203125 46.484375 
Q 39.796875 46.484375 45.921875 39.9375 
Q 52.046875 33.40625 52.046875 23.046875 
Q 52.046875 12.0625 45.59375 5.421875 
Q 39.15625 -1.21875 29.046875 -1.21875 
Q 18.21875 -1.21875 11.234375 7.203125 
Q 4.25 15.625 4.25 34.8125 
Q 4.25 54.5 11.515625 63.1875 
Q 18.796875 71.875 30.421875 71.875 
Q 38.578125 71.875 43.921875 67.3125 
Q 49.265625 62.75 50.734375 54.046875 
z
M 19.625 24.125 
Q 19.625 17.4375 22.703125 13.796875 
Q 25.78125 10.15625 29.734375 10.15625 
Q 33.546875 10.15625 36.078125 13.125 
Q 38.625 16.109375 38.625 22.90625 
Q 38.625 29.890625 35.890625 33.125 
Q 33.15625 36.375 29.046875 36.375 
Q 25.09375 36.375 22.359375 33.265625 
Q 19.625 30.171875 19.625 24.125 
z
" id="Arial-BoldMT-54"/>
      </defs>
      <g style="fill:#262626;" transform="translate(28.988125 189.332627)scale(0.12 -0.12)">
       <use xlink:href="#Arial-BoldMT-54"/>
      </g>
     </g>
    </g>
    <g id="ytick_5">
     <g id="line2d_33">
      <path clip-path="url(#p40b691b454)" d="M 39.16125 157.223002 
L 597.16125 157.223002 
" style="fill:none;stroke:#cccccc;stroke-linecap:round;stroke-width:0.8;"/>
     </g>
     <g id="line2d_34">
      <g>
       <use style="fill:#262626;stroke:#262626;stroke-width:0.8;" x="39.16125" xlink:href="#m3dadc11756" y="157.223002"/>
      </g>
     </g>
     <g id="text_17">
      <!-- 8 -->
      <defs>
       <path d="M 16.015625 38.625 
Q 10.6875 40.875 8.265625 44.796875 
Q 5.859375 48.734375 5.859375 53.421875 
Q 5.859375 61.421875 11.453125 66.640625 
Q 17.046875 71.875 27.34375 71.875 
Q 37.546875 71.875 43.1875 66.640625 
Q 48.828125 61.421875 48.828125 53.421875 
Q 48.828125 48.4375 46.234375 44.546875 
Q 43.65625 40.671875 38.96875 38.625 
Q 44.921875 36.234375 48.015625 31.640625 
Q 51.125 27.046875 51.125 21.046875 
Q 51.125 11.140625 44.796875 4.9375 
Q 38.484375 -1.265625 27.984375 -1.265625 
Q 18.21875 -1.265625 11.71875 3.859375 
Q 4.046875 9.90625 4.046875 20.453125 
Q 4.046875 26.265625 6.921875 31.125 
Q 9.8125 35.984375 16.015625 38.625 
z
M 18.84375 52.4375 
Q 18.84375 48.34375 21.15625 46.046875 
Q 23.484375 43.75 27.34375 43.75 
Q 31.25 43.75 33.59375 46.0625 
Q 35.9375 48.390625 35.9375 52.484375 
Q 35.9375 56.34375 33.609375 58.65625 
Q 31.296875 60.984375 27.484375 60.984375 
Q 23.53125 60.984375 21.1875 58.640625 
Q 18.84375 56.296875 18.84375 52.4375 
z
M 17.578125 21.78125 
Q 17.578125 16.109375 20.484375 12.9375 
Q 23.390625 9.765625 27.734375 9.765625 
Q 31.984375 9.765625 34.765625 12.8125 
Q 37.546875 15.875 37.546875 21.625 
Q 37.546875 26.65625 34.71875 29.703125 
Q 31.890625 32.765625 27.546875 32.765625 
Q 22.515625 32.765625 20.046875 29.296875 
Q 17.578125 25.828125 17.578125 21.78125 
z
" id="Arial-BoldMT-56"/>
      </defs>
      <g style="fill:#262626;" transform="translate(28.988125 161.51769)scale(0.12 -0.12)">
       <use xlink:href="#Arial-BoldMT-56"/>
      </g>
     </g>
    </g>
    <g id="ytick_6">
     <g id="line2d_35">
      <path clip-path="url(#p40b691b454)" d="M 39.16125 129.408065 
L 597.16125 129.408065 
" style="fill:none;stroke:#cccccc;stroke-linecap:round;stroke-width:0.8;"/>
     </g>
     <g id="line2d_36">
      <g>
       <use style="fill:#262626;stroke:#262626;stroke-width:0.8;" x="39.16125" xlink:href="#m3dadc11756" y="129.408065"/>
      </g>
     </g>
     <g id="text_18">
      <!-- 10 -->
      <defs>
       <path d="M 39.359375 0 
L 25.640625 0 
L 25.640625 51.703125 
Q 18.109375 44.671875 7.90625 41.3125 
L 7.90625 53.765625 
Q 13.28125 55.515625 19.578125 60.421875 
Q 25.875 65.328125 28.21875 71.875 
L 39.359375 71.875 
z
" id="Arial-BoldMT-49"/>
      </defs>
      <g style="fill:#262626;" transform="translate(22.315 133.702753)scale(0.12 -0.12)">
       <use xlink:href="#Arial-BoldMT-49"/>
       <use x="55.615234" xlink:href="#Arial-BoldMT-48"/>
      </g>
     </g>
    </g>
    <g id="ytick_7">
     <g id="line2d_37">
      <path clip-path="url(#p40b691b454)" d="M 39.16125 101.593128 
L 597.16125 101.593128 
" style="fill:none;stroke:#cccccc;stroke-linecap:round;stroke-width:0.8;"/>
     </g>
     <g id="line2d_38">
      <g>
       <use style="fill:#262626;stroke:#262626;stroke-width:0.8;" x="39.16125" xlink:href="#m3dadc11756" y="101.593128"/>
      </g>
     </g>
     <g id="text_19">
      <!-- 12 -->
      <g style="fill:#262626;" transform="translate(22.315 105.887816)scale(0.12 -0.12)">
       <use xlink:href="#Arial-BoldMT-49"/>
       <use x="55.615234" xlink:href="#Arial-BoldMT-50"/>
      </g>
     </g>
    </g>
    <g id="ytick_8">
     <g id="line2d_39">
      <path clip-path="url(#p40b691b454)" d="M 39.16125 73.778192 
L 597.16125 73.778192 
" style="fill:none;stroke:#cccccc;stroke-linecap:round;stroke-width:0.8;"/>
     </g>
     <g id="line2d_40">
      <g>
       <use style="fill:#262626;stroke:#262626;stroke-width:0.8;" x="39.16125" xlink:href="#m3dadc11756" y="73.778192"/>
      </g>
     </g>
     <g id="text_20">
      <!-- 14 -->
      <g style="fill:#262626;" transform="translate(22.315 78.072879)scale(0.12 -0.12)">
       <use xlink:href="#Arial-BoldMT-49"/>
       <use x="55.615234" xlink:href="#Arial-BoldMT-52"/>
      </g>
     </g>
    </g>
    <g id="ytick_9">
     <g id="line2d_41">
      <path clip-path="url(#p40b691b454)" d="M 39.16125 45.963255 
L 597.16125 45.963255 
" style="fill:none;stroke:#cccccc;stroke-linecap:round;stroke-width:0.8;"/>
     </g>
     <g id="line2d_42">
      <g>
       <use style="fill:#262626;stroke:#262626;stroke-width:0.8;" x="39.16125" xlink:href="#m3dadc11756" y="45.963255"/>
      </g>
     </g>
     <g id="text_21">
      <!-- 16 -->
      <g style="fill:#262626;" transform="translate(22.315 50.257942)scale(0.12 -0.12)">
       <use xlink:href="#Arial-BoldMT-49"/>
       <use x="55.615234" xlink:href="#Arial-BoldMT-54"/>
      </g>
     </g>
    </g>
    <g id="text_22">
     <!-- Energy [TWh] -->
     <defs>
      <path d="M 7.28125 0 
L 7.28125 71.578125 
L 60.359375 71.578125 
L 60.359375 59.46875 
L 21.734375 59.46875 
L 21.734375 43.609375 
L 57.671875 43.609375 
L 57.671875 31.546875 
L 21.734375 31.546875 
L 21.734375 12.0625 
L 61.71875 12.0625 
L 61.71875 0 
z
" id="Arial-BoldMT-69"/>
      <path id="Arial-BoldMT-32"/>
      <path d="M 7.125 -20.171875 
L 7.125 71.578125 
L 31.453125 71.578125 
L 31.453125 60.796875 
L 20.171875 60.796875 
L 20.171875 -9.375 
L 31.453125 -9.375 
L 31.453125 -20.171875 
z
" id="Arial-BoldMT-91"/>
      <path d="M 23.390625 0 
L 23.390625 59.46875 
L 2.15625 59.46875 
L 2.15625 71.578125 
L 59.03125 71.578125 
L 59.03125 59.46875 
L 37.84375 59.46875 
L 37.84375 0 
z
" id="Arial-BoldMT-84"/>
      <path d="M 17.4375 0 
L 0.34375 71.578125 
L 15.140625 71.578125 
L 25.921875 22.40625 
L 39.015625 71.578125 
L 56.203125 71.578125 
L 68.75 21.578125 
L 79.734375 71.578125 
L 94.28125 71.578125 
L 76.90625 0 
L 61.578125 0 
L 47.3125 53.515625 
L 33.109375 0 
z
" id="Arial-BoldMT-87"/>
      <path d="M 20.84375 71.578125 
L 20.84375 45.265625 
Q 27.484375 53.03125 36.71875 53.03125 
Q 41.453125 53.03125 45.265625 51.265625 
Q 49.078125 49.515625 51 46.78125 
Q 52.9375 44.046875 53.640625 40.71875 
Q 54.34375 37.40625 54.34375 30.421875 
L 54.34375 0 
L 40.625 0 
L 40.625 27.390625 
Q 40.625 35.546875 39.84375 37.734375 
Q 39.0625 39.9375 37.078125 41.234375 
Q 35.109375 42.53125 32.125 42.53125 
Q 28.71875 42.53125 26.03125 40.859375 
Q 23.34375 39.203125 22.09375 35.859375 
Q 20.84375 32.515625 20.84375 25.984375 
L 20.84375 0 
L 7.125 0 
L 7.125 71.578125 
z
" id="Arial-BoldMT-104"/>
      <path d="M 26.171875 71.578125 
L 26.171875 -20.171875 
L 1.859375 -20.171875 
L 1.859375 -9.375 
L 13.140625 -9.375 
L 13.140625 60.890625 
L 1.859375 60.890625 
L 1.859375 71.578125 
z
" id="Arial-BoldMT-93"/>
     </defs>
     <g style="fill:#262626;" transform="translate(15.789375 185.078062)rotate(-90)scale(0.12 -0.12)">
      <use xlink:href="#Arial-BoldMT-69"/>
      <use x="66.699219" xlink:href="#Arial-BoldMT-110"/>
      <use x="127.783203" xlink:href="#Arial-BoldMT-101"/>
      <use x="183.398438" xlink:href="#Arial-BoldMT-114"/>
      <use x="222.314453" xlink:href="#Arial-BoldMT-103"/>
      <use x="283.398438" xlink:href="#Arial-BoldMT-121"/>
      <use x="339.013672" xlink:href="#Arial-BoldMT-32"/>
      <use x="366.796875" xlink:href="#Arial-BoldMT-91"/>
      <use x="400.097656" xlink:href="#Arial-BoldMT-84"/>
      <use x="461.181641" xlink:href="#Arial-BoldMT-87"/>
      <use x="555.566406" xlink:href="#Arial-BoldMT-104"/>
      <use x="616.650391" xlink:href="#Arial-BoldMT-93"/>
     </g>
    </g>
   </g>
   <g id="PolyCollection_1">
    <defs>
     <path d="M 39.16125 -136.201856 
L 39.16125 -80.07 
L 90.951669 -80.07 
L 137.730112 -80.07 
L 189.450921 -80.07 
L 239.570681 -80.07 
L 291.3611 -80.07 
L 341.480861 -80.07 
L 393.27128 -80.07 
L 445.061699 -80.07 
L 495.18146 -80.07 
L 546.971879 -80.07 
L 597.16125 -80.07 
L 597.16125 -135.65171 
L 597.16125 -135.65171 
L 546.971879 -134.087526 
L 495.18146 -135.108586 
L 445.061699 -133.39663 
L 393.27128 -134.515741 
L 341.480861 -134.584539 
L 291.3611 -133.001285 
L 239.570681 -134.545654 
L 189.450921 -123.300655 
L 137.730112 -118.98299 
L 90.951669 -130.242837 
L 39.16125 -136.201856 
z
" id="ma11bea1c86"/>
    </defs>
    <g clip-path="url(#p40b691b454)">
     <use style="fill:#a74038;fill-opacity:0.9;" x="0" xlink:href="#ma11bea1c86" y="348.55275"/>
    </g>
   </g>
   <g id="PolyCollection_2">
    <defs>
     <path d="M 39.16125 -170.962855 
L 39.16125 -136.201856 
L 90.951669 -130.242837 
L 137.730112 -118.98299 
L 189.450921 -123.300655 
L 239.570681 -134.545654 
L 291.3611 -133.001285 
L 341.480861 -134.584539 
L 393.27128 -134.515741 
L 445.061699 -133.39663 
L 495.18146 -135.108586 
L 546.971879 -134.087526 
L 597.16125 -135.65171 
L 597.16125 -172.513987 
L 597.16125 -172.513987 
L 546.971879 -168.00489 
L 495.18146 -167.485379 
L 445.061699 -165.008813 
L 393.27128 -166.751888 
L 341.480861 -169.033654 
L 291.3611 -167.923809 
L 239.570681 -171.066201 
L 189.450921 -155.9362 
L 137.730112 -154.276677 
L 90.951669 -161.265672 
L 39.16125 -170.962855 
z
" id="mb42f236ac9"/>
    </defs>
    <g clip-path="url(#p40b691b454)">
     <use style="fill:#486ead;fill-opacity:0.9;" x="0" xlink:href="#mb42f236ac9" y="348.55275"/>
    </g>
   </g>
   <g id="PolyCollection_3">
    <defs>
     <path d="M 39.16125 -173.54844 
L 39.16125 -170.962855 
L 90.951669 -161.265672 
L 137.730112 -154.276677 
L 189.450921 -155.9362 
L 239.570681 -171.066201 
L 291.3611 -167.923809 
L 341.480861 -169.033654 
L 393.27128 -166.751888 
L 445.061699 -165.008813 
L 495.18146 -167.485379 
L 546.971879 -168.00489 
L 597.16125 -172.513987 
L 597.16125 -175.228439 
L 597.16125 -175.228439 
L 546.971879 -170.731668 
L 495.18146 -170.182903 
L 445.061699 -167.599781 
L 393.27128 -169.530393 
L 341.480861 -171.803091 
L 291.3611 -170.663824 
L 239.570681 -173.615741 
L 189.450921 -157.792771 
L 137.730112 -156.594394 
L 90.951669 -163.734449 
L 39.16125 -173.54844 
z
" id="m1b33c938f9"/>
    </defs>
    <g clip-path="url(#p40b691b454)">
     <use style="fill:#ebc054;fill-opacity:0.9;" x="0" xlink:href="#m1b33c938f9" y="348.55275"/>
    </g>
   </g>
   <g id="PolyCollection_4">
    <defs>
     <path d="M 39.16125 -180.541831 
L 39.16125 -173.54844 
L 90.951669 -163.734449 
L 137.730112 -156.594394 
L 189.450921 -157.792771 
L 239.570681 -173.615741 
L 291.3611 -170.663824 
L 341.480861 -171.803091 
L 393.27128 -169.530393 
L 445.061699 -167.599781 
L 495.18146 -170.182903 
L 546.971879 -170.731668 
L 597.16125 -175.228439 
L 597.16125 -182.253723 
L 597.16125 -182.253723 
L 546.971879 -176.048515 
L 495.18146 -175.642226 
L 445.061699 -171.364473 
L 393.27128 -172.534789 
L 341.480861 -174.71002 
L 291.3611 -174.805059 
L 239.570681 -177.897421 
L 189.450921 -163.863008 
L 137.730112 -163.383591 
L 90.951669 -170.142504 
L 39.16125 -180.541831 
z
" id="mf8d887d014"/>
    </defs>
    <g clip-path="url(#p40b691b454)">
     <use style="fill:#49ace2;fill-opacity:0.9;" x="0" xlink:href="#mf8d887d014" y="348.55275"/>
    </g>
   </g>
   <g id="PolyCollection_5">
    <defs>
     <path d="M 39.16125 -209.998698 
L 39.16125 -180.541831 
L 90.951669 -170.142504 
L 137.730112 -163.383591 
L 189.450921 -163.863008 
L 239.570681 -177.897421 
L 291.3611 -174.805059 
L 341.480861 -174.71002 
L 393.27128 -172.534789 
L 445.061699 -171.364473 
L 495.18146 -175.642226 
L 546.971879 -176.048515 
L 597.16125 -182.253723 
L 597.16125 -211.599402 
L 597.16125 -211.599402 
L 546.971879 -200.142395 
L 495.18146 -200.96597 
L 445.061699 -197.836643 
L 393.27128 -209.694159 
L 341.480861 -215.0788 
L 291.3611 -200.341459 
L 239.570681 -196.597734 
L 189.450921 -184.707252 
L 137.730112 -190.488645 
L 90.951669 -196.187347 
L 39.16125 -209.998698 
z
" id="mff13dc8c9b"/>
    </defs>
    <g clip-path="url(#p40b691b454)">
     <use style="fill:#a67b55;fill-opacity:0.9;" x="0" xlink:href="#mff13dc8c9b" y="348.55275"/>
    </g>
   </g>
   <g id="PolyCollection_6">
    <defs>
     <path d="M 39.16125 -240.67854 
L 39.16125 -209.998698 
L 90.951669 -196.187347 
L 137.730112 -190.488645 
L 189.450921 -184.707252 
L 239.570681 -196.597734 
L 291.3611 -200.341459 
L 341.480861 -215.0788 
L 393.27128 -209.694159 
L 445.061699 -197.836643 
L 495.18146 -200.96597 
L 546.971879 -200.142395 
L 597.16125 -211.599402 
L 597.16125 -242.02623 
L 597.16125 -242.02623 
L 546.971879 -228.05587 
L 495.18146 -226.469613 
L 445.061699 -230.961294 
L 393.27128 -257.64937 
L 341.480861 -273.95881 
L 291.3611 -231.728333 
L 239.570681 -220.56217 
L 189.450921 -207.597749 
L 137.730112 -217.987172 
L 90.951669 -223.852692 
L 39.16125 -240.67854 
z
" id="m7006fb1e9d"/>
    </defs>
    <g clip-path="url(#p40b691b454)">
     <use style="fill:#744b27;fill-opacity:0.9;" x="0" xlink:href="#m7006fb1e9d" y="348.55275"/>
    </g>
   </g>
   <g id="PolyCollection_7">
    <defs>
     <path d="M 39.16125 -243.918751 
L 39.16125 -240.67854 
L 90.951669 -223.852692 
L 137.730112 -217.987172 
L 189.450921 -207.597749 
L 239.570681 -220.56217 
L 291.3611 -231.728333 
L 341.480861 -273.95881 
L 393.27128 -257.64937 
L 445.061699 -230.961294 
L 495.18146 -226.469613 
L 546.971879 -228.05587 
L 597.16125 -242.02623 
L 597.16125 -242.164634 
L 597.16125 -242.164634 
L 546.971879 -228.099576 
L 495.18146 -226.496794 
L 445.061699 -231.003315 
L 393.27128 -258.580686 
L 341.480861 -275.423675 
L 291.3611 -231.799967 
L 239.570681 -220.633948 
L 189.450921 -207.754349 
L 137.730112 -218.941027 
L 90.951669 -224.689856 
L 39.16125 -243.918751 
z
" id="mc73a0631df"/>
    </defs>
    <g clip-path="url(#p40b691b454)">
     <use style="fill-opacity:0.9;" x="0" xlink:href="#mc73a0631df" y="348.55275"/>
    </g>
   </g>
   <g id="PolyCollection_8">
    <defs>
     <path d="M 39.16125 -273.913336 
L 39.16125 -243.918751 
L 90.951669 -224.689856 
L 137.730112 -218.941027 
L 189.450921 -207.754349 
L 239.570681 -220.633948 
L 291.3611 -231.799967 
L 341.480861 -275.423675 
L 393.27128 -258.580686 
L 445.061699 -231.003315 
L 495.18146 -226.496794 
L 546.971879 -228.099576 
L 597.16125 -242.164634 
L 597.16125 -264.759733 
L 597.16125 -264.759733 
L 546.971879 -247.679179 
L 495.18146 -243.135434 
L 445.061699 -255.499696 
L 393.27128 -290.508632 
L 341.480861 -313.212857 
L 291.3611 -259.413856 
L 239.570681 -240.880302 
L 189.450921 -235.319904 
L 137.730112 -257.369374 
L 90.951669 -249.549086 
L 39.16125 -273.913336 
z
" id="me667296636"/>
    </defs>
    <g clip-path="url(#p40b691b454)">
     <use style="fill:#878787;fill-opacity:0.9;" x="0" xlink:href="#me667296636" y="348.55275"/>
    </g>
   </g>
   <g id="line2d_43">
    <path clip-path="url(#p40b691b454)" d="M 39.16125 212.350894 
L 90.951669 218.309913 
L 137.730112 229.56976 
L 189.450921 225.252095 
L 239.570681 214.007096 
L 291.3611 215.551465 
L 341.480861 213.968211 
L 393.27128 214.037009 
L 445.061699 215.15612 
L 495.18146 213.444164 
L 546.971879 214.465224 
L 597.16125 212.90104 
" style="fill:none;"/>
   </g>
   <g id="line2d_44">
    <path clip-path="url(#p40b691b454)" d="M 39.16125 177.589895 
L 90.951669 187.287078 
L 137.730112 194.276073 
L 189.450921 192.61655 
L 239.570681 177.486549 
L 291.3611 180.628941 
L 341.480861 179.519096 
L 393.27128 181.800862 
L 445.061699 183.543937 
L 495.18146 181.067371 
L 546.971879 180.54786 
L 597.16125 176.038763 
" style="fill:none;"/>
   </g>
   <g id="line2d_45">
    <path clip-path="url(#p40b691b454)" d="M 39.16125 175.00431 
L 90.951669 184.818301 
L 137.730112 191.958356 
L 189.450921 190.759979 
L 239.570681 174.937009 
L 291.3611 177.888926 
L 341.480861 176.749659 
L 393.27128 179.022357 
L 445.061699 180.952969 
L 495.18146 178.369847 
L 546.971879 177.821082 
L 597.16125 173.324311 
" style="fill:none;"/>
   </g>
   <g id="line2d_46">
    <path clip-path="url(#p40b691b454)" d="M 39.16125 168.010919 
L 90.951669 178.410246 
L 137.730112 185.169159 
L 189.450921 184.689742 
L 239.570681 170.655329 
L 291.3611 173.747691 
L 341.480861 173.84273 
L 393.27128 176.017961 
L 445.061699 177.188277 
L 495.18146 172.910524 
L 546.971879 172.504235 
L 597.16125 166.299027 
" style="fill:none;"/>
   </g>
   <g id="line2d_47">
    <path clip-path="url(#p40b691b454)" d="M 39.16125 138.554052 
L 90.951669 152.365403 
L 137.730112 158.064105 
L 189.450921 163.845498 
L 239.570681 151.955016 
L 291.3611 148.211291 
L 341.480861 133.47395 
L 393.27128 138.858591 
L 445.061699 150.716107 
L 495.18146 147.58678 
L 546.971879 148.410355 
L 597.16125 136.953348 
" style="fill:none;"/>
   </g>
   <g id="line2d_48">
    <path clip-path="url(#p40b691b454)" d="M 39.16125 107.87421 
L 90.951669 124.700058 
L 137.730112 130.565578 
L 189.450921 140.955001 
L 239.570681 127.99058 
L 291.3611 116.824417 
L 341.480861 74.59394 
L 393.27128 90.90338 
L 445.061699 117.591456 
L 495.18146 122.083137 
L 546.971879 120.49688 
L 597.16125 106.52652 
" style="fill:none;"/>
   </g>
   <g id="line2d_49">
    <path clip-path="url(#p40b691b454)" d="M 39.16125 104.633999 
L 90.951669 123.862894 
L 137.730112 129.611723 
L 189.450921 140.798401 
L 239.570681 127.918802 
L 291.3611 116.752783 
L 341.480861 73.129075 
L 393.27128 89.972064 
L 445.061699 117.549435 
L 495.18146 122.055956 
L 546.971879 120.453174 
L 597.16125 106.388116 
" style="fill:none;"/>
   </g>
   <g id="line2d_50">
    <path clip-path="url(#p40b691b454)" d="M 39.16125 74.639414 
L 90.951669 99.003664 
L 137.730112 91.183376 
L 189.450921 113.232846 
L 239.570681 107.672448 
L 291.3611 89.138894 
L 341.480861 35.339893 
L 393.27128 58.044118 
L 445.061699 93.053054 
L 495.18146 105.417316 
L 546.971879 100.873571 
L 597.16125 83.793017 
" style="fill:none;"/>
   </g>
   <g id="line2d_51">
    <path clip-path="url(#p40b691b454)" d="M 39.16125 74.793158 
L 90.951669 98.787764 
L 137.730112 91.205611 
L 189.450921 113.51726 
L 239.570681 107.823712 
L 291.3611 89.32948 
L 341.480861 35.893652 
L 393.27128 58.487959 
L 445.061699 93.468732 
L 495.18146 105.75351 
L 546.971879 101.37145 
L 597.16125 84.19623 
" style="fill:none;stroke:#000000;stroke-dasharray:3.7,1.6;stroke-dashoffset:0;"/>
   </g>
   <g id="patch_3">
    <path d="M 39.16125 268.48275 
L 39.16125 23.68275 
" style="fill:none;stroke:#262626;stroke-linecap:square;stroke-linejoin:miter;"/>
   </g>
   <g id="patch_4">
    <path d="M 597.16125 268.48275 
L 597.16125 23.68275 
" style="fill:none;stroke:#262626;stroke-linecap:square;stroke-linejoin:miter;"/>
   </g>
   <g id="patch_5">
    <path d="M 39.16125 268.48275 
L 597.16125 268.48275 
" style="fill:none;stroke:#262626;stroke-linecap:square;stroke-linejoin:miter;"/>
   </g>
   <g id="patch_6">
    <path d="M 39.16125 23.68275 
L 597.16125 23.68275 
" style="fill:none;stroke:#262626;stroke-linecap:square;stroke-linejoin:miter;"/>
   </g>
   <g id="text_23">
    <!-- Historic (2019) -->
    <defs>
     <path d="M 7.328125 0 
L 7.328125 71.578125 
L 21.78125 71.578125 
L 21.78125 43.40625 
L 50.09375 43.40625 
L 50.09375 71.578125 
L 64.546875 71.578125 
L 64.546875 0 
L 50.09375 0 
L 50.09375 31.296875 
L 21.78125 31.296875 
L 21.78125 0 
z
" id="Arial-BoldMT-72"/>
     <path d="M 7.171875 58.890625 
L 7.171875 71.578125 
L 20.90625 71.578125 
L 20.90625 58.890625 
z
M 7.171875 0 
L 7.171875 51.859375 
L 20.90625 51.859375 
L 20.90625 0 
z
" id="Arial-BoldMT-105"/>
     <path d="M 2.34375 14.796875 
L 16.109375 16.890625 
Q 17 12.890625 19.671875 10.8125 
Q 22.359375 8.734375 27.203125 8.734375 
Q 32.515625 8.734375 35.203125 10.6875 
Q 37.015625 12.0625 37.015625 14.359375 
Q 37.015625 15.921875 36.03125 16.9375 
Q 35.015625 17.921875 31.453125 18.75 
Q 14.84375 22.40625 10.40625 25.4375 
Q 4.25 29.640625 4.25 37.109375 
Q 4.25 43.84375 9.5625 48.4375 
Q 14.890625 53.03125 26.078125 53.03125 
Q 36.71875 53.03125 41.890625 49.5625 
Q 47.078125 46.09375 49.03125 39.3125 
L 36.078125 36.921875 
Q 35.25 39.9375 32.921875 41.546875 
Q 30.609375 43.171875 26.3125 43.171875 
Q 20.90625 43.171875 18.5625 41.65625 
Q 17 40.578125 17 38.875 
Q 17 37.40625 18.359375 36.375 
Q 20.21875 35.015625 31.171875 32.515625 
Q 42.140625 30.03125 46.484375 26.421875 
Q 50.78125 22.75 50.78125 16.21875 
Q 50.78125 9.078125 44.828125 3.953125 
Q 38.875 -1.171875 27.203125 -1.171875 
Q 16.609375 -1.171875 10.421875 3.125 
Q 4.25 7.421875 2.34375 14.796875 
z
" id="Arial-BoldMT-115"/>
     <path d="M 29.9375 -21.046875 
L 20.515625 -21.046875 
Q 13.03125 -9.765625 9.125 2.390625 
Q 5.21875 14.546875 5.21875 25.921875 
Q 5.21875 40.046875 10.0625 52.640625 
Q 14.265625 63.578125 20.703125 72.796875 
L 30.078125 72.796875 
Q 23.390625 58.015625 20.875 47.625 
Q 18.359375 37.25 18.359375 25.640625 
Q 18.359375 17.625 19.84375 9.21875 
Q 21.34375 0.828125 23.921875 -6.734375 
Q 25.640625 -11.71875 29.9375 -21.046875 
z
" id="Arial-BoldMT-40"/>
     <path d="M 4.546875 16.546875 
L 17.828125 18.015625 
Q 18.3125 13.96875 20.359375 12.015625 
Q 22.40625 10.0625 25.78125 10.0625 
Q 30.03125 10.0625 33 13.96875 
Q 35.984375 17.875 36.8125 30.171875 
Q 31.640625 24.171875 23.875 24.171875 
Q 15.4375 24.171875 9.296875 30.6875 
Q 3.171875 37.203125 3.171875 47.65625 
Q 3.171875 58.546875 9.640625 65.203125 
Q 16.109375 71.875 26.125 71.875 
Q 37.015625 71.875 44 63.453125 
Q 50.984375 55.03125 50.984375 35.75 
Q 50.984375 16.109375 43.703125 7.421875 
Q 36.421875 -1.265625 24.75 -1.265625 
Q 16.359375 -1.265625 11.171875 3.203125 
Q 6 7.671875 4.546875 16.546875 
z
M 35.59375 46.53125 
Q 35.59375 53.171875 32.546875 56.828125 
Q 29.5 60.5 25.484375 60.5 
Q 21.6875 60.5 19.171875 57.5 
Q 16.65625 54.5 16.65625 47.65625 
Q 16.65625 40.71875 19.390625 37.46875 
Q 22.125 34.234375 26.21875 34.234375 
Q 30.171875 34.234375 32.875 37.359375 
Q 35.59375 40.484375 35.59375 46.53125 
z
" id="Arial-BoldMT-57"/>
     <path d="M 3.375 -21.046875 
Q 7.421875 -12.359375 9.078125 -7.71875 
Q 10.75 -3.078125 12.15625 2.96875 
Q 13.578125 9.03125 14.25 14.46875 
Q 14.9375 19.921875 14.9375 25.640625 
Q 14.9375 37.25 12.453125 47.625 
Q 9.96875 58.015625 3.265625 72.796875 
L 12.59375 72.796875 
Q 19.96875 62.3125 24.046875 50.53125 
Q 28.125 38.765625 28.125 26.65625 
Q 28.125 16.453125 24.90625 4.78125 
Q 21.234375 -8.296875 12.84375 -21.046875 
z
" id="Arial-BoldMT-41"/>
    </defs>
    <g style="fill:#262626;" transform="translate(268.545375 17.68275)scale(0.144 -0.144)">
     <use xlink:href="#Arial-BoldMT-72"/>
     <use x="72.216797" xlink:href="#Arial-BoldMT-105"/>
     <use x="100" xlink:href="#Arial-BoldMT-115"/>
     <use x="155.615234" xlink:href="#Arial-BoldMT-116"/>
     <use x="188.916016" xlink:href="#Arial-BoldMT-111"/>
     <use x="250" xlink:href="#Arial-BoldMT-114"/>
     <use x="288.916016" xlink:href="#Arial-BoldMT-105"/>
     <use x="316.699219" xlink:href="#Arial-BoldMT-99"/>
     <use x="372.314453" xlink:href="#Arial-BoldMT-32"/>
     <use x="400.097656" xlink:href="#Arial-BoldMT-40"/>
     <use x="433.398438" xlink:href="#Arial-BoldMT-50"/>
     <use x="489.013672" xlink:href="#Arial-BoldMT-48"/>
     <use x="544.628906" xlink:href="#Arial-BoldMT-49"/>
     <use x="600.244141" xlink:href="#Arial-BoldMT-57"/>
     <use x="655.859375" xlink:href="#Arial-BoldMT-41"/>
    </g>
   </g>
   <g id="legend_1">
    <g id="line2d_52">
     <path d="M 54.585937 295.912125 
L 78.585937 295.912125 
" style="fill:none;stroke:#000000;stroke-dasharray:3.7,1.6;stroke-dashoffset:0;"/>
    </g>
    <g id="line2d_53"/>
    <g id="text_24">
     <!-- Load -->
     <defs>
      <path d="M 7.671875 0 
L 7.671875 71 
L 22.125 71 
L 22.125 12.0625 
L 58.0625 12.0625 
L 58.0625 0 
z
" id="Arial-BoldMT-76"/>
      <path d="M 54.734375 0 
L 42 0 
L 42 7.625 
Q 38.8125 3.171875 34.484375 1 
Q 30.171875 -1.171875 25.78125 -1.171875 
Q 16.84375 -1.171875 10.46875 6.03125 
Q 4.109375 13.234375 4.109375 26.125 
Q 4.109375 39.3125 10.296875 46.171875 
Q 16.5 53.03125 25.984375 53.03125 
Q 34.671875 53.03125 41.015625 45.796875 
L 41.015625 71.578125 
L 54.734375 71.578125 
z
M 18.109375 27.046875 
Q 18.109375 18.75 20.40625 15.046875 
Q 23.734375 9.671875 29.6875 9.671875 
Q 34.421875 9.671875 37.734375 13.6875 
Q 41.0625 17.71875 41.0625 25.734375 
Q 41.0625 34.671875 37.84375 38.59375 
Q 34.625 42.53125 29.59375 42.53125 
Q 24.703125 42.53125 21.40625 38.640625 
Q 18.109375 34.765625 18.109375 27.046875 
z
" id="Arial-BoldMT-100"/>
     </defs>
     <g style="fill:#262626;" transform="translate(88.185937 300.112125)scale(0.12 -0.12)">
      <use xlink:href="#Arial-BoldMT-76"/>
      <use x="61.083984" xlink:href="#Arial-BoldMT-111"/>
      <use x="122.167969" xlink:href="#Arial-BoldMT-97"/>
      <use x="177.783203" xlink:href="#Arial-BoldMT-100"/>
     </g>
    </g>
    <g id="patch_7">
     <path d="M 54.585937 317.069625 
L 78.585937 317.069625 
L 78.585937 308.669625 
L 54.585937 308.669625 
z
" style="fill:#a74038;opacity:0.9;"/>
    </g>
    <g id="text_25">
     <!-- Nuclear -->
     <g style="fill:#262626;" transform="translate(88.185937 317.069625)scale(0.12 -0.12)">
      <use xlink:href="#Arial-BoldMT-78"/>
      <use x="72.216797" xlink:href="#Arial-BoldMT-117"/>
      <use x="133.300781" xlink:href="#Arial-BoldMT-99"/>
      <use x="188.916016" xlink:href="#Arial-BoldMT-108"/>
      <use x="216.699219" xlink:href="#Arial-BoldMT-101"/>
      <use x="272.314453" xlink:href="#Arial-BoldMT-97"/>
      <use x="327.929688" xlink:href="#Arial-BoldMT-114"/>
     </g>
    </g>
    <g id="patch_8">
     <path d="M 54.585937 334.027125 
L 78.585937 334.027125 
L 78.585937 325.627125 
L 54.585937 325.627125 
z
" style="fill:#486ead;opacity:0.9;"/>
    </g>
    <g id="text_26">
     <!-- Hydro -->
     <g style="fill:#262626;" transform="translate(88.185937 334.027125)scale(0.12 -0.12)">
      <use xlink:href="#Arial-BoldMT-72"/>
      <use x="72.216797" xlink:href="#Arial-BoldMT-121"/>
      <use x="127.832031" xlink:href="#Arial-BoldMT-100"/>
      <use x="188.916016" xlink:href="#Arial-BoldMT-114"/>
      <use x="227.832031" xlink:href="#Arial-BoldMT-111"/>
     </g>
    </g>
    <g id="patch_9">
     <path d="M 156.205312 300.112125 
L 180.205312 300.112125 
L 180.205312 291.712125 
L 156.205312 291.712125 
z
" style="fill:#ebc054;opacity:0.9;"/>
    </g>
    <g id="text_27">
     <!-- Other Renewables -->
     <defs>
      <path d="M 7.328125 0 
L 7.328125 71.578125 
L 37.75 71.578125 
Q 49.21875 71.578125 54.421875 69.640625 
Q 59.625 67.71875 62.75 62.78125 
Q 65.875 57.859375 65.875 51.515625 
Q 65.875 43.453125 61.125 38.203125 
Q 56.390625 32.953125 46.96875 31.59375 
Q 51.65625 28.859375 54.703125 25.578125 
Q 57.765625 22.3125 62.9375 13.96875 
L 71.6875 0 
L 54.390625 0 
L 43.953125 15.578125 
Q 38.375 23.921875 36.328125 26.09375 
Q 34.28125 28.265625 31.984375 29.078125 
Q 29.6875 29.890625 24.703125 29.890625 
L 21.78125 29.890625 
L 21.78125 0 
z
M 21.78125 41.3125 
L 32.46875 41.3125 
Q 42.875 41.3125 45.453125 42.1875 
Q 48.046875 43.0625 49.515625 45.203125 
Q 50.984375 47.359375 50.984375 50.59375 
Q 50.984375 54.203125 49.046875 56.421875 
Q 47.125 58.640625 43.609375 59.234375 
Q 41.84375 59.46875 33.0625 59.46875 
L 21.78125 59.46875 
z
" id="Arial-BoldMT-82"/>
      <path d="M 16.84375 0 
L 0.4375 51.859375 
L 13.765625 51.859375 
L 23.484375 17.875 
L 32.421875 51.859375 
L 45.65625 51.859375 
L 54.296875 17.875 
L 64.203125 51.859375 
L 77.734375 51.859375 
L 61.078125 0 
L 47.90625 0 
L 38.96875 33.34375 
L 30.171875 0 
z
" id="Arial-BoldMT-119"/>
     </defs>
     <g style="fill:#262626;" transform="translate(189.805312 300.112125)scale(0.12 -0.12)">
      <use xlink:href="#Arial-BoldMT-79"/>
      <use x="77.783203" xlink:href="#Arial-BoldMT-116"/>
      <use x="111.083984" xlink:href="#Arial-BoldMT-104"/>
      <use x="172.167969" xlink:href="#Arial-BoldMT-101"/>
      <use x="227.783203" xlink:href="#Arial-BoldMT-114"/>
      <use x="266.699219" xlink:href="#Arial-BoldMT-32"/>
      <use x="294.482422" xlink:href="#Arial-BoldMT-82"/>
      <use x="366.699219" xlink:href="#Arial-BoldMT-101"/>
      <use x="422.314453" xlink:href="#Arial-BoldMT-110"/>
      <use x="483.398438" xlink:href="#Arial-BoldMT-101"/>
      <use x="539.013672" xlink:href="#Arial-BoldMT-119"/>
      <use x="616.796875" xlink:href="#Arial-BoldMT-97"/>
      <use x="672.412109" xlink:href="#Arial-BoldMT-98"/>
      <use x="733.496094" xlink:href="#Arial-BoldMT-108"/>
      <use x="761.279297" xlink:href="#Arial-BoldMT-101"/>
      <use x="816.894531" xlink:href="#Arial-BoldMT-115"/>
     </g>
    </g>
    <g id="patch_10">
     <path d="M 156.205312 317.069625 
L 180.205312 317.069625 
L 180.205312 308.669625 
L 156.205312 308.669625 
z
" style="fill:#49ace2;opacity:0.9;"/>
    </g>
    <g id="text_28">
     <!-- Wind -->
     <g style="fill:#262626;" transform="translate(189.805312 317.069625)scale(0.12 -0.12)">
      <use xlink:href="#Arial-BoldMT-87"/>
      <use x="93.509766" xlink:href="#Arial-BoldMT-105"/>
      <use x="121.292969" xlink:href="#Arial-BoldMT-110"/>
      <use x="182.376953" xlink:href="#Arial-BoldMT-100"/>
     </g>
    </g>
    <g id="patch_11">
     <path d="M 318.499687 300.112125 
L 342.499687 300.112125 
L 342.499687 291.712125 
L 318.499687 291.712125 
z
" style="fill:#a67b55;opacity:0.9;"/>
    </g>
    <g id="text_29">
     <!-- Natural Gas -->
     <defs>
      <path d="M 40.578125 26.3125 
L 40.578125 38.375 
L 71.734375 38.375 
L 71.734375 9.859375 
Q 67.1875 5.46875 58.5625 2.125 
Q 49.953125 -1.21875 41.109375 -1.21875 
Q 29.890625 -1.21875 21.53125 3.484375 
Q 13.1875 8.203125 8.984375 16.96875 
Q 4.78125 25.734375 4.78125 36.03125 
Q 4.78125 47.21875 9.46875 55.90625 
Q 14.15625 64.59375 23.1875 69.234375 
Q 30.078125 72.796875 40.328125 72.796875 
Q 53.65625 72.796875 61.15625 67.203125 
Q 68.65625 61.625 70.796875 51.765625 
L 56.453125 49.078125 
Q 54.9375 54.34375 50.75 57.390625 
Q 46.578125 60.453125 40.328125 60.453125 
Q 30.859375 60.453125 25.265625 54.4375 
Q 19.671875 48.4375 19.671875 36.625 
Q 19.671875 23.875 25.328125 17.5 
Q 31 11.140625 40.1875 11.140625 
Q 44.734375 11.140625 49.296875 12.921875 
Q 53.859375 14.703125 57.125 17.234375 
L 57.125 26.3125 
z
" id="Arial-BoldMT-71"/>
     </defs>
     <g style="fill:#262626;" transform="translate(352.099688 300.112125)scale(0.12 -0.12)">
      <use xlink:href="#Arial-BoldMT-78"/>
      <use x="72.216797" xlink:href="#Arial-BoldMT-97"/>
      <use x="127.832031" xlink:href="#Arial-BoldMT-116"/>
      <use x="161.132812" xlink:href="#Arial-BoldMT-117"/>
      <use x="222.216797" xlink:href="#Arial-BoldMT-114"/>
      <use x="261.132812" xlink:href="#Arial-BoldMT-97"/>
      <use x="316.748047" xlink:href="#Arial-BoldMT-108"/>
      <use x="344.53125" xlink:href="#Arial-BoldMT-32"/>
      <use x="372.314453" xlink:href="#Arial-BoldMT-71"/>
      <use x="450.097656" xlink:href="#Arial-BoldMT-97"/>
      <use x="505.712891" xlink:href="#Arial-BoldMT-115"/>
     </g>
    </g>
    <g id="patch_12">
     <path d="M 318.499687 317.069625 
L 342.499687 317.069625 
L 342.499687 308.669625 
L 318.499687 308.669625 
z
" style="fill:#744b27;opacity:0.9;"/>
    </g>
    <g id="text_30">
     <!-- Dual Fuel -->
     <g style="fill:#262626;" transform="translate(352.099688 317.069625)scale(0.12 -0.12)">
      <use xlink:href="#Arial-BoldMT-68"/>
      <use x="72.216797" xlink:href="#Arial-BoldMT-117"/>
      <use x="133.300781" xlink:href="#Arial-BoldMT-97"/>
      <use x="188.916016" xlink:href="#Arial-BoldMT-108"/>
      <use x="216.699219" xlink:href="#Arial-BoldMT-32"/>
      <use x="244.482422" xlink:href="#Arial-BoldMT-70"/>
      <use x="305.566406" xlink:href="#Arial-BoldMT-117"/>
      <use x="366.650391" xlink:href="#Arial-BoldMT-101"/>
      <use x="422.265625" xlink:href="#Arial-BoldMT-108"/>
     </g>
    </g>
    <g id="patch_13">
     <path d="M 443.455312 300.112125 
L 467.455312 300.112125 
L 467.455312 291.712125 
L 443.455312 291.712125 
z
" style="opacity:0.9;"/>
    </g>
    <g id="text_31">
     <!-- Other Fossil Fuels -->
     <g style="fill:#262626;" transform="translate(477.055313 300.112125)scale(0.12 -0.12)">
      <use xlink:href="#Arial-BoldMT-79"/>
      <use x="77.783203" xlink:href="#Arial-BoldMT-116"/>
      <use x="111.083984" xlink:href="#Arial-BoldMT-104"/>
      <use x="172.167969" xlink:href="#Arial-BoldMT-101"/>
      <use x="227.783203" xlink:href="#Arial-BoldMT-114"/>
      <use x="266.699219" xlink:href="#Arial-BoldMT-32"/>
      <use x="294.482422" xlink:href="#Arial-BoldMT-70"/>
      <use x="355.566406" xlink:href="#Arial-BoldMT-111"/>
      <use x="416.650391" xlink:href="#Arial-BoldMT-115"/>
      <use x="472.265625" xlink:href="#Arial-BoldMT-115"/>
      <use x="527.880859" xlink:href="#Arial-BoldMT-105"/>
      <use x="555.664062" xlink:href="#Arial-BoldMT-108"/>
      <use x="583.447266" xlink:href="#Arial-BoldMT-32"/>
      <use x="611.230469" xlink:href="#Arial-BoldMT-70"/>
      <use x="672.314453" xlink:href="#Arial-BoldMT-117"/>
      <use x="733.398438" xlink:href="#Arial-BoldMT-101"/>
      <use x="789.013672" xlink:href="#Arial-BoldMT-108"/>
      <use x="816.796875" xlink:href="#Arial-BoldMT-115"/>
     </g>
    </g>
    <g id="patch_14">
     <path d="M 443.455312 317.069625 
L 467.455312 317.069625 
L 467.455312 308.669625 
L 443.455312 308.669625 
z
" style="fill:#878787;opacity:0.9;"/>
    </g>
    <g id="text_32">
     <!-- Imports -->
     <defs>
      <path d="M 6.84375 0 
L 6.84375 71.578125 
L 21.296875 71.578125 
L 21.296875 0 
z
" id="Arial-BoldMT-73"/>
      <path d="M 6.15625 51.859375 
L 18.796875 51.859375 
L 18.796875 44.78125 
Q 25.59375 53.03125 34.96875 53.03125 
Q 39.9375 53.03125 43.59375 50.96875 
Q 47.265625 48.921875 49.609375 44.78125 
Q 53.03125 48.921875 56.984375 50.96875 
Q 60.9375 53.03125 65.4375 53.03125 
Q 71.140625 53.03125 75.09375 50.703125 
Q 79.046875 48.390625 81 43.890625 
Q 82.421875 40.578125 82.421875 33.15625 
L 82.421875 0 
L 68.703125 0 
L 68.703125 29.640625 
Q 68.703125 37.359375 67.28125 39.59375 
Q 65.375 42.53125 61.421875 42.53125 
Q 58.546875 42.53125 56 40.765625 
Q 53.46875 39.015625 52.34375 35.625 
Q 51.21875 32.234375 51.21875 24.90625 
L 51.21875 0 
L 37.5 0 
L 37.5 28.421875 
Q 37.5 35.984375 36.765625 38.171875 
Q 36.03125 40.375 34.484375 41.453125 
Q 32.953125 42.53125 30.328125 42.53125 
Q 27.15625 42.53125 24.609375 40.8125 
Q 22.078125 39.109375 20.96875 35.890625 
Q 19.875 32.671875 19.875 25.203125 
L 19.875 0 
L 6.15625 0 
z
" id="Arial-BoldMT-109"/>
     </defs>
     <g style="fill:#262626;" transform="translate(477.055313 317.069625)scale(0.12 -0.12)">
      <use xlink:href="#Arial-BoldMT-73"/>
      <use x="27.783203" xlink:href="#Arial-BoldMT-109"/>
      <use x="116.699219" xlink:href="#Arial-BoldMT-112"/>
      <use x="177.783203" xlink:href="#Arial-BoldMT-111"/>
      <use x="238.867188" xlink:href="#Arial-BoldMT-114"/>
      <use x="277.783203" xlink:href="#Arial-BoldMT-116"/>
      <use x="311.083984" xlink:href="#Arial-BoldMT-115"/>
     </g>
    </g>
   </g>
  </g>
 </g>
 <defs>
  <clipPath id="p40b691b454">
   <rect height="244.8" width="558" x="39.16125" y="23.68275"/>
  </clipPath>
 </defs>
</svg>
